<?xml version="1.0" encoding="UTF-8" standalone="no"?>
<!-- Created with Inkscape (http://www.inkscape.org/) -->

<svg
   width="118"
   height="76"
   viewBox="0 0 59 38"
   version="1.1"
   id="svg5"
   inkscape:version="1.1.1 (3bf5ae0d25, 2021-09-20)"
   sodipodi:docname="dessin3.svg"
   xmlns:inkscape="http://www.inkscape.org/namespaces/inkscape"
   xmlns:sodipodi="http://sodipodi.sourceforge.net/DTD/sodipodi-0.dtd"
   xmlns="http://www.w3.org/2000/svg"
   xmlns:svg="http://www.w3.org/2000/svg">
  <sodipodi:namedview
     id="namedview7"
     pagecolor="#af1c80"
     bordercolor="#666666"
     borderopacity="1.0"
     inkscape:pageshadow="2"
     inkscape:pageopacity="0"
     inkscape:pagecheckerboard="0"
     inkscape:document-units="px"
     showgrid="true"
     fit-margin-top="0"
     fit-margin-left="0"
     fit-margin-right="0"
     fit-margin-bottom="0"
     inkscape:zoom="4"
     inkscape:cx="52.5"
     inkscape:cy="23.875"
     inkscape:window-width="1600"
     inkscape:window-height="829"
     inkscape:window-x="-8"
     inkscape:window-y="-8"
     inkscape:window-maximized="1"
     inkscape:current-layer="layer1"
     scale-x="1.2">
    <inkscape:grid
       type="xygrid"
       id="grid1709"
       spacingx="1"
       spacingy="1"
       empcolor="#3fffd2"
       empopacity="0.25098039"
       originx="12"
       originy="-1.5"
       empspacing="3"
       visible="true" />
  </sodipodi:namedview>
  <defs
     id="defs2" />
  <g
     inkscape:label="Calque 1"
     inkscape:groupmode="layer"
     id="layer1"
     transform="translate(21.677914,-6.5736196)"
     style="display:inline">
    <path
       id="rect12895"
       style="display:inline;fill:#000000;fill-opacity:1;stroke:none;stroke-width:0.8"
       d="m -6,3 v 2 h 2 V 3 Z M 6,3 V 5 H 8 V 3 Z m 3,0 v 2 h 2 V 3 Z m 6,0 v 2 h 2 V 3 Z M -9,6 v 2 h 2 V 6 Z m 3,0 v 2 h 2 V 6 Z M 6,6 V 8 H 8 V 6 Z m 3,0 v 2 h 2 V 6 Z m 6,0 v 2 h 2 V 6 Z m 3,0 v 2 h 2 V 6 Z m -30,3 v 2 h 2 V 9 Z m 3,0 v 2 h 2 V 9 Z m 3,0 v 2 h 2 V 9 Z M 6,9 v 2 H 8 V 9 Z m 3,0 v 2 h 2 V 9 Z m 6,0 v 2 h 2 V 9 Z m 3,0 v 2 h 2 V 9 Z m 3,0 v 2 h 2 V 9 Z m -36,3 v 2 h 2 v -2 z m 3,0 v 2 h 2 v -2 z m 3,0 v 2 h 2 v -2 z m 3,0 v 2 h 2 v -2 z m 12,0 v 2 h 2 v -2 z m 3,0 v 2 h 2 v -2 z m 6,0 v 2 h 2 v -2 z m 3,0 v 2 h 2 v -2 z m 3,0 v 2 h 2 v -2 z m 3,0 v 2 h 2 v -2 z m -42,3 v 2 h 2 v -2 z m 3,0 v 2 h 2 v -2 z m 3,0 v 2 h 2 v -2 z m 3,0 v 2 h 2 v -2 z m 12,0 v 2 h 2 v -2 z m 3,0 v 2 h 2 v -2 z m 12,0 v 2 h 2 v -2 z m 3,0 v 2 h 2 v -2 z m 3,0 v 2 h 2 v -2 z m 3,0 v 2 h 2 v -2 z m -48,3 v 2 h 2 v -2 z m 3,0 v 2 h 2 v -2 z m 3,0 v 2 h 2 v -2 z m 3,0 v 2 h 2 v -2 z m 15,0 v 2 h 2 v -2 z m 3,0 v 2 h 2 v -2 z m 15,0 v 2 h 2 v -2 z m 3,0 v 2 h 2 v -2 z m 3,0 v 2 h 2 v -2 z m 3,0 v 2 h 2 v -2 z m -54,3 v 2 h 2 v -2 z m 3,0 v 2 h 2 v -2 z m 3,0 v 2 h 2 v -2 z m 3,0 v 2 h 2 v -2 z m 18,0 v 2 h 2 v -2 z m 3,0 v 2 h 2 v -2 z m 18,0 v 2 h 2 v -2 z m 3,0 v 2 h 2 v -2 z m 3,0 v 2 h 2 v -2 z m 3,0 v 2 h 2 v -2 z m -54,3 v 2 h 2 v -2 z m 3,0 v 2 h 2 v -2 z m 3,0 v 2 h 2 v -2 z m 3,0 v 2 h 2 v -2 z m 15,0 v 2 h 2 v -2 z m 3,0 v 2 h 2 v -2 z m 15,0 v 2 h 2 v -2 z m 3,0 v 2 h 2 v -2 z m 3,0 v 2 h 2 v -2 z m 3,0 v 2 h 2 v -2 z m -48,3 v 2 h 2 v -2 z m 3,0 v 2 h 2 v -2 z m 3,0 v 2 h 2 v -2 z m 3,0 v 2 h 2 v -2 z m 12,0 v 2 h 2 v -2 z m 3,0 v 2 h 2 v -2 z m 12,0 v 2 h 2 v -2 z m 3,0 v 2 h 2 v -2 z m 3,0 v 2 h 2 v -2 z m 3,0 v 2 h 2 v -2 z m -42,3 v 2 h 2 v -2 z m 3,0 v 2 h 2 v -2 z m 3,0 v 2 h 2 v -2 z m 3,0 v 2 h 2 v -2 z m 6,0 v 2 h 2 v -2 z m 3,0 v 2 h 2 v -2 z m 12,0 v 2 h 2 v -2 z m 3,0 v 2 h 2 v -2 z m 3,0 v 2 h 2 v -2 z m 3,0 v 2 h 2 v -2 z m -36,3 v 2 h 2 v -2 z m 3,0 v 2 h 2 v -2 z m 3,0 v 2 h 2 v -2 z m 6,0 v 2 h 2 v -2 z m 3,0 v 2 h 2 v -2 z m 12,0 v 2 h 2 v -2 z m 3,0 v 2 h 2 v -2 z m 3,0 v 2 h 2 v -2 z m -30,3 v 2 h 2 v -2 z m 3,0 v 2 h 2 v -2 z m 6,0 v 2 h 2 v -2 z m 3,0 v 2 h 2 v -2 z m 12,0 v 2 h 2 v -2 z m 3,0 v 2 h 2 v -2 z m -24,3 v 2 h 2 v -2 z m 6,0 v 2 h 2 v -2 z m 3,0 v 2 h 2 v -2 z m 12,0 v 2 h 2 v -2 z"
       transform="translate(2.3220859,3.5736196)" />
  </g>
</svg>
