<?xml version="1.0" encoding="UTF-8" standalone="no"?>
<!-- Created with Inkscape (http://www.inkscape.org/) -->

<svg
   width="41"
   height="41"
   viewBox="0 0 41 41"
   version="1.1"
   id="svg5"
   inkscape:version="1.1.1 (3bf5ae0d25, 2021-09-20)"
   sodipodi:docname="dessin.svg"
   xmlns:inkscape="http://www.inkscape.org/namespaces/inkscape"
   xmlns:sodipodi="http://sodipodi.sourceforge.net/DTD/sodipodi-0.dtd"
   xmlns="http://www.w3.org/2000/svg"
   xmlns:svg="http://www.w3.org/2000/svg">
  <sodipodi:namedview
     id="namedview7"
     pagecolor="#af1c80"
     bordercolor="#666666"
     borderopacity="1.0"
     inkscape:pageshadow="2"
     inkscape:pageopacity="0"
     inkscape:pagecheckerboard="0"
     inkscape:document-units="px"
     showgrid="false"
     fit-margin-top="0"
     fit-margin-left="0"
     fit-margin-right="0"
     fit-margin-bottom="0"
     inkscape:zoom="6.7916667"
     inkscape:cx="46.159509"
     inkscape:cy="32.907975"
     inkscape:window-width="1600"
     inkscape:window-height="829"
     inkscape:window-x="-8"
     inkscape:window-y="-8"
     inkscape:window-maximized="1"
     inkscape:current-layer="layer1" />
  <defs
     id="defs2" />
  <g
     inkscape:label="Calque 1"
     inkscape:groupmode="layer"
     id="layer1"
     transform="translate(-2.3220859,-3.5736196)">
    <path
       style="fill:#ffffff;fill-opacity:1"
       d="m 2.3220859,43.57362 v -1 h 1 1 v 1 1 h -1 -1 z m 3,0 v -1 h 1 1 v 1 1 h -1 -1 z m 3,0 v -1 h 1 1.0000001 v 1 1 h -1.0000001 -1 z m 3.0000001,0 v -1 h 1 1 v 1 1 h -1 -1 z m 3,0 v -1 h 1 1 v 1 1 h -1 -1 z m 3,0 v -1 h 1 1 v 1 1 h -1 -1 z m 3,0 v -1 h 1 1 v 1 1 h -1 -1 z m 3,0 v -1 h 1 1 v 1 1 h -1 -1 z m 3,0 v -1 h 1 1 v 1 1 h -1 -1 z m -24.0000001,-3 v -1 h 1 1 v 1 1 h -1 -1 z m 12.0000001,0 v -1 h 1 1 v 1 1 h -1 -1 z m 12,0 v -1 h 1 1 v 1 1 h -1 -1 z m -24.0000001,-3 v -1 h 1 1 v 1 1 h -1 -1 z m 3,0 v -1 h 1 1 v 1 1 h -1 -1 z m 3,0 v -1 h 1 1.0000001 v 1 1 h -1.0000001 -1 z m 3.0000001,0 v -1 h 1 1 v 1 1 h -1 -1 z m 3,0 v -1 h 1 1 v 1 1 h -1 -1 z m 3,0 v -1 h 1 1 v 1 1 h -1 -1 z m 3,0 v -1 h 1 1 v 1 1 h -1 -1 z m 3,0 v -1 h 1 1 v 1 1 h -1 -1 z m 3,0 v -1 h 1 1 v 1 1 h -1 -1 z m -24.0000001,-3 v -1 h 1 1 v 1 1 h -1 -1 z m 24.0000001,0 v -1 h 1 1 v 1 1 h -1 -1 z m -24.0000001,-3 v -1 h 1 1 v 1 1 h -1 -1 z m 0,-3 v -1 h 1 1 v 1 1 h -1 -1 z m 6,0 v -1 h 1 1.0000001 v 1 1 h -1.0000001 -1 z m 9.0000001,0 v -1 h 1 1 v 1 1 h -1 -1 z m 6,0 v -1 h 1 1 v 1 1 h -1 -1 z m 9,0 v -1 h 1 1 v 1 1 h -1 -1 z m -30.0000001,-3 v -1 h 1 1 v 1 1 h -1 -1 z m 12.0000001,0 v -1 h 1 1 v 1 1 h -1 -1 z m 3,0 v -1 h 1 1 v 1 1 h -1 -1 z m 6,0 v -1 h 1 1 v 1 1 h -1 -1 z m 9,0 v -1 h 1 1 v 1 1 h -1 -1 z m 3,0 v -1 h 1 1 v 1 1 h -1 -1 z m -33.0000001,-3 v -1 h 1 1 v 1 1 h -1 -1 z m 9.0000001,0 v -1 h 1 1 v 1 1 h -1 -1 z m 3,0 v -1 h 1 1 v 1 1 h -1 -1 z m 9,0 v -1 h 1 1 v 1 1 h -1 -1 z m 12,0 v -1 h 1 1 v 1 1 h -1 -1 z m 3,0 v -1 h 1 1 v 1 1 h -1 -1 z m -36.0000001,-3 v -1 h 1 1 v 1 1 h -1 -1 z m 6,0 v -1 h 1 1.0000001 v 1 1 h -1.0000001 -1 z m 3.0000001,0 v -1 h 1 1 v 1 1 h -1 -1 z m 12,0 v -1 h 1 1 v 1 1 h -1 -1 z m 3,0 v -1 h 1 1 v 1 1 h -1 -1 z m 12,0 v -1 h 1 1 v 1 1 h -1 -1 z m 3,0 v -1 h 1 1 v 1 1 h -1 -1 z m -39.0000001,-3 v -1 h 1 1 v 1 1 h -1 -1 z m 9.0000001,0 v -1 h 1 1 v 1 1 h -1 -1 z m 3,0 v -1 h 1 1 v 1 1 h -1 -1 z m 12,0 v -1 h 1 1 v 1 1 h -1 -1 z m 9,0 v -1 h 1 1 v 1 1 h -1 -1 z m 3,0 v -1 h 1 1 v 1 1 h -1 -1 z m -36.0000001,-3 v -1 h 1 1 v 1 1 h -1 -1 z m 12.0000001,0 v -1 h 1 1 v 1 1 h -1 -1 z m 3,0 v -1 h 1 1 v 1 1 h -1 -1 z m 9,0 v -1 h 1 1 v 1 1 h -1 -1 z m 6,0 v -1 h 1 1 v 1 1 h -1 -1 z m 3,0 v -1 h 1 1 v 1 1 h -1 -1 z m -33.0000001,-3 V 9.5736199 h 1 1 v 1.0000001 1 h -1 -1 z m 6,0 V 9.5736199 h 1 1.0000001 v 1.0000001 1 h -1.0000001 -1 z m 9.0000001,0 V 9.5736199 h 1 1 v 1.0000001 1 h -1 -1 z m 9,0 V 9.5736199 h 1 1 v 1.0000001 1 h -1 -1 z m 6,0 V 9.5736199 h 1 1 v 1.0000001 1 h -1 -1 z M 2.3220859,7.5736196 v -1 h 1 1 v 1 1 h -1 -1 z m 0,-3 v -1 h 1 1 v 1 1 h -1 -1 z m 3,0 v -1 h 1 1 v 1 1 h -1 -1 z m 3,0 v -1 h 1 1.0000001 v 1 1 h -1.0000001 -1 z m 3.0000001,0 v -1 h 1 1 v 1 1 h -1 -1 z m 3,0 v -1 h 1 1 v 1 1 h -1 -1 z m 3,0 v -1 h 1 1 v 1 1 h -1 -1 z m 3,0 v -1 h 1 1 v 1 1 h -1 -1 z m 3,0 v -1 h 1 1 v 1 1 h -1 -1 z m 3,0 v -1 h 1 1 v 1 1 h -1 -1 z"
       id="path1276" />
  </g>
</svg>
