<svg xmlns="http://www.w3.org/2000/svg" style="display: none;" viewBox="0 0 200 200">
  <symbol id="flutter" viewBox="0 0 200 200">
    <path d="m77 115-31 31 54 54h62z"  opacity="0.72"/>
    <path d="m100 92-54 54 31 31 85-85Z"  opacity="0.72"/>
    <path d="M100 0 0 100l31 31L162 0h-62z"  opacity="0.72"/>
  </symbol>
  <symbol id="dart" viewBox="200 0 200 200">
    <path d="M207 125c-4-4-7-10-7-16l3-9 31-66v107c0 10 2 13 7 18z" />
    <path d="M358 41 324 7c-3-3-10-7-15-7-4 0-9 1-12 3l-63 31z"  opacity="0.5"/>
    <path d="M364 200h-82l-36-36h118Z"  opacity="0.5"/>
    <path d="M234 141c0 10 2 13 7 18l5 5h118l-57-65-73-65Z"  opacity="0.75"/>
    <path d="M339 34H234l130 130h36V83l-42-42c-6-6-11-7-19-7z" />
    <path d="M399 82v81h-36l1 1h36V83Z" />
  </symbol>
  <symbol id="kotlin" viewBox="400 0 200 200">
    <path d="M400 0v200h200L500 100 600 0Z" />
  </symbol>
  <symbol id="swift" viewBox="600 0 200 200">
    <path d="M800 63v82a300 300 0 0 1-1 19 44 44 0 0 1-12 23 42 42 0 0 1-23 12 88 88 0 0 1-19 1h-90a301 301 0 0 1-19-1 44 44 0 0 1-23-12 42 42 0 0 1-12-23 88 88 0 0 1-1-19V55a301 301 0 0 1 1-19 44 44 0 0 1 12-23 43 43 0 0 1 23-12 76 76 0 0 1 13-1h96a278 278 0 0 1 19 1 44 44 0 0 1 23 12 42 42 0 0 1 12 23 88 88 0 0 1 1 19v8Zm-42 60 1-2c8-33-12-72-46-93 15 21 22 45 16 67l-2 6-3-2s-34-21-71-58c-1-1 19 29 43 54-11-6-42-29-61-47l8 12c16 21 37 46 63 66-18 11-43 11-68 0-7-3-13-7-18-11 11 17 27 32 47 41 24 10 48 9 65 0l3-2c8-4 25-8 34 9 2 4 7-18-11-40z" />
  </symbol>
  <symbol id="nodejs" viewBox="800 0 200 200">
    <path d="m983 47 2 2-26 48 28 48c0 4-1 7-4 8 3-1 5-4 5-8V55c0-4-2-7-5-8z"  opacity="0.8"/>
    <path d="M817 47c-3 1-5 4-5 8v90l2 6 32-54-28-51z"  opacity="0.7"/>
    <path d="M983 47 905 1l-2-1 56 97 26-48-2-2z"  opacity="0.6"/>
    <path d="m814 151 3 2 78 46 7 1-56-103Z" />
    <path d="m899 0-4 1-77 45 84 154 3-1 78-46c3-1 4-4 4-8L903 0a10 10 0 0 0-4 0"  opacity="0.75"/>
  </symbol>
  <symbol id="mongodb" viewBox="1000 0 200 200">
    <path d="M1117 22a347 347 0 0 1-17-22l-17 22c-73 92 11 154 11 154l1 1 2 23h6l2-23 1-1s84-62 11-154zm-17 153-5-5 5-100 5 100-5 5z" />
  </symbol>
  <symbol id="mysql" viewBox="1200 0 200 200">
    <path d="M1384 154c-11-1-19 0-26 3-2 1-5 1-6 4l2 4 8 9 8 6 17 8 9 7 4 3-2-5-4-4-14-13c-5-3-14-7-16-12v-1l9-2 14-2 6-2v-1l-7-8-22-17-14-7-5-2c-3-3-4-7-6-11l-11-23-7-16c-14-23-29-37-53-51-5-3-11-4-17-5l-10-1-7-5c-7-5-27-15-33-1-4 9 5 17 8 22l7 10 3 7 7 18 5 9c1 1 3 2 3 5-2 2-2 6-3 10-5 15-3 34 4 45 2 4 7 11 14 8 6-2 5-10 7-17l1-3 5 11c4 7 12 14 18 18 3 3 6 7 10 9v-1l-4-3-7-8-15-24-6-13-2-5c-2 3-5 5-6 9-3 6-3 13-4 20l-1 1c-4-1-6-6-7-10-4-9-5-25-2-36 1-3 6-12 4-15l-5-6-5-8-8-24-7-11-8-10v-6l2-2c1-1 6 1 8 2l14 7 6 4h3c4 1 9 0 13 2 7 2 14 5 20 9 18 11 32 27 42 47l4 9 9 20c3 6 6 13 10 18 2 3 10 4 14 6 3 1 7 2 9 4l14 9c2 2 9 5 9 8" />
  </symbol>
  <symbol id="html" viewBox="1400 0 200 200">
    <path d="m1442 184-13-145h142l-13 145-58 16Zm80-61-2 23-20 5-20-5-1-15h-18l3 28 36 10 36-10 1-3 4-46v-5h-64l-2-18h68v-4l1-9v-5h-88v5l4 49zM1451 0v9h9V0h9v27h-9v-9h-9v9h-9V0Zm22 9V0h24v9h-8v18h-9V9Zm28-9h10l6 9 5-9h10v27h-9V14l-6 9h-1l-6-9v13h-9zm35 0h9v18h13v9h-22z" />
  </symbol>
  <symbol id="css" viewBox="1600 0 200 200">
    <path d="M1663 0h21v9h-13v9h13v9h-21Zm25 0h22v8h-13v1h13v18h-22v-8h13v-1h-13zm26 0h22v8h-13v1h13v18h-22v-8h13v-1h-13zm57 39-13 145-58 16-58-16-13-145Zm-49 84-2 23-20 5-20-5-1-15h-18l3 28 36 10 36-10 1-3 4-46v-5l3-36h-88l1 18h68l-2 18h-64l1 18z" />
  </symbol>
  <symbol id="bootstrap" viewBox="1800 0 200 200">
    <path d="M1822 41c0-11 8-21 20-21h116c12 0 20 10 20 21s0 24 3 35c4 11 10 18 19 19v10c-9 1-15 8-19 19-3 11-3 24-3 35s-8 21-20 21h-116c-12 0-20-10-20-21s0-24-3-35c-4-11-10-18-19-19V95c9-1 15-8 19-19 3-11 3-24 3-35zm82 101c19 0 30-9 30-24 0-11-8-19-20-20v-1c9-1 16-9 16-18 0-13-10-21-26-21h-35v84zm-21-74h18c10 0 15 5 15 13s-6 13-18 13h-15zm0 64v-28h18c13 0 19 4 19 14 0 9-6 14-18 14z" />
  </symbol>
  <symbol id="angular" viewBox="2000 0 200 200">
    <path d="m2021 156-14-123 93-33 93 33-14 123-79 44Zm79-134-58 131h21l12-30h50l11 30h22zm17 83h-34l17-41z" />
  </symbol>
  <symbol id="docker" viewBox="2200 0 200 200">
    <path d="m2291 28-1 4v11l1 4h19c2-1 1-3 1-4V29l-5-1h-15m-49 23-1 4v10l1 4 4 1h15l1-4V55l-1-3-4-1h-15m25 0c-2 1-1 3-1 4v14l5 1h15l1-4V55l-1-3-4-1h-15m24 0-1 4v10l1 4 4 1h15l1-4V52l-5-1h-15m65 5-4 7c-3 7-5 15-3 22l4 8c-12 5-26 3-39 3h-100c-4 0-8-1-11 1s-3 4-3 7l1 13c3 19 11 40 30 48 10 5 22 6 33 7 29 1 60-7 81-28a105 105 0 0 0 22-35l2-5h3l9-2c9-2 17-9 19-18-8-6-17-6-27-5 0-7-5-14-10-19l-7-4m-138 18c-2 0-1 2-1 4v14h20V74h-19m24 0-1 4v10l1 4h19l1-4V78l-1-4h-19m25 0c-2 0-1 2-1 4v14h20l1-4V78l-1-4h-19m24 0-1 4v10l1 4h19c2 0 1-3 1-4V74h-20m25 0-1 4v14h20l1-4V78l-1-4h-19" />
  </symbol>
  <symbol id="javascript" viewBox="2400 0 200 200">
    <path d="M2400 0h200v200h-200Zm119 165c6 11 17 20 35 20 17 0 31-10 31-27 0-15-9-22-25-29l-5-2c-8-4-12-6-12-12 0-4 4-8 9-8 6 0 9 3 13 8l14-9c-6-11-15-15-27-15-16 0-27 11-27 25 0 15 9 22 23 28l4 2c9 4 14 6 14 13 0 5-5 9-13 9-9 0-14-5-18-12zm-66 2c4 10 13 18 28 18 17 0 28-9 28-29V92h-19v64c0 9-4 12-10 12s-9-5-12-10z" />
  </symbol>
  <symbol id="typescript" viewBox="2600 0 200 200">
    <path d="M2620 0h160c11 0 20 9 20 20v160c0 11-9 20-20 20h-160c-11 0-20-9-20-20V20c0-11 9-20 20-20Zm103 159 1 1v-1zm1 20 11 3a74 74 0 0 0 27 0l11-4c3-2 6-5 7-8a30 30 0 0 0 2-22l-5-7-7-6-9-4-7-4-6-3-3-3a7 7 0 0 1 0-7l3-3 5-2 6-1a36 36 0 0 1 10 2l6 2 5 2V96l-10-2a78 78 0 0 0-26 0l-11 5-7 8c-2 3-3 7-3 12 0 6 2 11 5 15 4 4 9 7 16 10l7 3 6 4 4 3a8 8 0 0 1 0 9l-2 2-5 2-7 1-12-2-11-6zm-33-68h25V95h-70v16h25v71h20z" />
  </symbol>
</svg>