<?xml version="1.0" encoding="UTF-8" standalone="no"?>
<svg
   viewBox="0 0 2800 200"
   version="1.1"
   id="svg88"
   sodipodi:docname="logo.svg"
   width="2800"
   height="200"
   inkscape:version="1.1.1 (3bf5ae0d25, 2021-09-20)"
   xmlns:inkscape="http://www.inkscape.org/namespaces/inkscape"
   xmlns:sodipodi="http://sodipodi.sourceforge.net/DTD/sodipodi-0.dtd"
   xmlns="http://www.w3.org/2000/svg"
   xmlns:svg="http://www.w3.org/2000/svg">
  <sodipodi:namedview
     id="namedview90"
     pagecolor="#ffffff"
     bordercolor="#666666"
     borderopacity="1.0"
     inkscape:pageshadow="2"
     inkscape:pageopacity="0.0"
     inkscape:pagecheckerboard="0"
     showgrid="true"
     fit-margin-top="0"
     fit-margin-left="0"
     fit-margin-right="0"
     fit-margin-bottom="0"
     inkscape:zoom="0.161"
     inkscape:cx="940.9938"
     inkscape:cy="-27.950311"
     inkscape:window-width="1600"
     inkscape:window-height="829"
     inkscape:window-x="-8"
     inkscape:window-y="-8"
     inkscape:window-maximized="1"
     inkscape:current-layer="svg88">
    <inkscape:grid
       type="xygrid"
       id="grid1056"
       spacingx="99.999999"
       spacingy="99.999999"
       empspacing="2"
       empcolor="#00005a"
       empopacity="0.25098039" />
  </sodipodi:namedview>
  <defs
     id="defs7" />
  <g
     id="flutter">
    <path
       style="opacity:0.72"
       d="M 77.136719,115.35742 46.419922,146.18945 100.23047,200 h 0.11523 61.31641 z"
       id="path1923" />
    <path
       style="opacity:0.72"
       d="M 100.23047,92.263672 46.304688,146.07422 77.136719,176.78906 161.66211,92.263672 Z"
       id="path1925" />
    <path
       style="opacity:0.72"
       d="M 100.11328,-0.00195313 -0.00195313,99.998047 30.828125,130.82812 161.54492,0.11328125 h -61.3164 z"
       id="path1927" />
  </g>
  <g
     id="dart">
    <path
       d="M 206.57894,124.99995 C 202.52631,120.8289 200,114.96048 200,109.21049 c 0,-2.6579 1.5,-6.81579 2.63158,-9.210527 l 31.57893,-65.78945 V 140.78942 c 0,10.55263 1.32895,13.14473 6.57895,18.42105 z"
       id="path1930" />
    <path
       d="M 357.89468,40.789458 323.68417,6.578944 C 320.69732,3.5789451 314.47364,-1e-6 309.21049,-1e-6 c -4.52632,0 -8.96053,0.90789441 -11.8421,2.631578 l -63.15788,31.578936 z"
       style="opacity:0.5"
       id="path1932" />
    <path
       d="M 364.47363,199.99993 H 281.57892 L 246.05261,164.47362 H 364.47363 Z"
       style="opacity:0.5"
       id="path1934" />
    <path
       style="opacity:0.75"
       d="m 234.21051,140.78942 c 0,10.55263 1.32895,13.14473 6.57895,18.42105 l 5.26315,5.26315 H 364.47363 L 306.57891,98.684174 234.21051,34.210513 Z"
       id="path1936" />
    <path
       d="M 339.47363,34.210513 H 234.21051 L 364.47363,164.47362 h 35.5263 V 82.894706 L 357.89468,40.789458 c -5.90789,-5.934208 -11.17105,-6.578945 -18.42105,-6.578945 z"
       id="path1938" />
    <path
       d="M 398.68359,81.578125 V 163.1582 H 363.1582 l 1.31446,1.31446 H 400 V 82.894531 Z"
       id="path1940" />
  </g>
  <g
     id="kotlin">
    <path
       d="M 400,0 V 200 H 600 L 500,100 600,0 Z"
       id="path1943" />
  </g>
  <g
     id="swift">
    <path
       d="m 800,62.561586 v 74.876564 c 0,2.38756 0,4.77513 -0.0135,7.16606 -0.0135,2.01377 -0.037,4.0208 -0.0909,6.03121 -0.11786,4.38449 -0.37716,8.80603 -1.15505,13.13665 -0.79137,4.40133 -2.08112,8.49622 -4.1151,12.49346 -2.0003,3.92651 -4.61012,7.51965 -7.72843,10.63122 -3.11495,3.11832 -6.70471,5.7315 -10.6346,7.72844 -3.99386,2.03397 -8.08539,3.32373 -12.48335,4.11509 -4.33735,0.7779 -8.75553,1.0372 -13.14002,1.15506 -2.01377,0.0539 -4.02418,0.0774 -6.03458,0.0909 -2.38756,0.0168 -4.77849,0.0135 -7.16606,0.0135 h -74.87656 c -2.39093,0 -4.77513,0.003 -7.16269,-0.0135 -2.01377,-0.0135 -4.02754,-0.037 -6.03795,-0.0909 -4.38112,-0.11786 -8.80603,-0.37716 -13.14002,-1.15506 -4.39796,-0.79136 -8.48949,-2.08112 -12.48335,-4.11509 -3.92988,-2.0003 -7.52302,-4.61012 -10.63796,-7.72844 -3.11495,-3.11157 -5.72813,-6.70471 -7.72507,-10.63122 -2.03397,-3.99724 -3.32373,-8.09213 -4.11509,-12.49346 -0.7779,-4.33062 -1.0372,-8.75216 -1.15506,-13.13665 -0.0539,-2.01041 -0.0774,-4.02081 -0.0909,-6.03121 -0.0168,-2.39093 -0.0135,-4.7785 -0.0135,-7.16606 V 62.561586 c 0,-2.387564 -0.003,-4.778495 0.0135,-7.166059 0.0135,-2.010403 0.037,-4.020806 0.0909,-6.034576 0.11786,-4.381129 0.37716,-8.802668 1.15506,-13.136653 0.79136,-4.397966 2.08112,-8.492857 4.11509,-12.49009 1.99694,-3.926516 4.61012,-7.519648 7.72507,-10.634594 0.78126,-0.777894 1.58946,-1.525481 2.4246,-2.239393 2.5088,-2.141736 5.26679,-3.987131 8.21336,-5.4856725 0.99678,-0.5084938 2.00367,-0.9698426 3.01729,-1.3907812 3.04086,-1.2560809 6.16927,-2.1316332 9.46606,-2.7243148 3.24965,-0.58594655 6.55318,-0.87555232 9.8466,-1.03382524 1.10118,-0.0538801 2.19898,-0.0909227 3.29342,-0.12123033 2.01041,-0.05388014 4.02418,-0.0774527 6.03458,-0.09092274 C 657.78336,4.155e-6 660.17093,4.155e-6 662.56186,4.155e-6 h 74.87656 c 2.38757,0 4.7785,0 7.16606,0.013470035 2.0104,0.01347004 4.02081,0.03367509 6.03458,0.09092274 4.38449,0.11786282 8.80267,0.3737935 13.14002,1.15505557 4.39796,0.7913646 8.48949,2.0811206 12.48335,4.115096 3.92989,1.9969329 7.52302,4.6101198 10.63796,7.7250655 3.11495,3.114946 5.72477,6.708078 7.72507,10.634594 2.03398,3.997233 3.3271,8.092124 4.1151,12.49009 0.77789,4.333985 1.03719,8.755524 1.15505,13.136653 0.0572,2.01377 0.0774,4.024173 0.0909,6.034576 C 800,57.783091 800,60.174022 800,62.561586 Z m -41.52138,60.894664 c -0.007,-0.007 -0.0101,-0.0101 -0.0168,-0.0168 0.22226,-0.75432 0.45125,-1.5019 0.6432,-2.27306 8.30091,-33.07231 -11.95803,-72.172457 -46.23927,-92.761407 15.02246,20.366694 21.66655,45.037065 15.76331,66.609328 -0.52533,1.922847 -1.15842,3.77161 -1.85887,5.566489 -0.75769,-0.49839 -1.71406,-1.06413 -3.00045,-1.774674 0,0 -34.09939,-21.053667 -71.06117,-58.298316 -0.96984,-0.976578 19.70666,29.556626 43.1782,54.351595 -11.0589,-6.206319 -41.87161,-28.623826 -61.37959,-46.478359 2.39767,3.997233 5.24658,7.842928 8.38173,11.550556 16.28864,20.659668 37.53426,46.148348 62.98589,65.723668 -17.88147,10.94441 -43.15126,11.79302 -68.30992,0.0101 -6.22316,-2.91627 -12.07252,-6.43531 -17.48747,-10.43255 10.64806,17.03287 27.0512,31.73204 47.01379,40.31245 23.80492,10.2305 47.47851,9.53679 65.11079,0.16838 l -0.0135,0.0202 c 0.0808,-0.0539 0.18521,-0.10776 0.26603,-0.15828 0.72401,-0.39063 1.44466,-0.78799 2.1451,-1.20557 8.47266,-4.39796 25.20581,-8.85991 34.18695,8.61746 2.20235,4.27674 6.87646,-18.3866 -10.30794,-39.53119 z"
       id="path1946" />
  </g>
  <g
     id="nodejs">
    <path
       d="m 983.11706,46.510248 h -0.3954 c 0.9643,0.555824 1.7533,1.279514 2.3987,2.103923 l -26.24501,48.05823 28.23141,48.231689 v 0.35438 c 0,3.38344 -1.4325,6.50761 -4.359,8.2012 h 0.3712 c 2.9302,-1.69359 4.7338,-4.81776 4.7338,-8.2012 V 54.711445 c 0,-3.385302 -1.8036,-6.511344 -4.7357,-8.201197 z"
       style="opacity:0.8"
       id="path1949" />
    <path
       d="m 816.88293,46.510248 c -2.93206,1.689853 -4.73569,4.815895 -4.73569,8.197466 v 90.550756 c 0,2.11325 0.70504,4.12765 1.94725,5.75222 l 31.529,-53.937278 -27.99262,-50.995886 z"
       style="opacity:0.7"
       id="path1951" />
    <path
       d="M 982.72166,46.510248 904.67696,1.2703077 c -0.69012,-0.3991485 -1.42127,-0.6957121 -2.1748,-0.9046123 l 56.37319,96.3067056 26.24501,-48.05823 c -0.6454,-0.824409 -1.4344,-1.548099 -2.3987,-2.103923 z"
       style="opacity:0.6"
       id="path1953" />
    <path
       d="m 813.98631,151.19534 c 0.74234,0.89342 1.63763,1.6712 2.66347,2.26433 l 78.51103,45.27538 c 2.11511,1.21983 4.53238,1.54437 6.81723,1.0016 L 845.62349,97.073412 Z"
       id="path1955" />
    <path
       d="m 899.42462,0.0206371 c -1.43806,0.089529 -2.85932,0.507329 -4.14816,1.2515358 L 817.63088,46.077526 901.97991,199.74038 c 0.88223,-0.2089 1.74395,-0.53344 2.5609,-1.00533 l 78.20705,-45.27538 c 2.9264,-1.69359 4.3589,-4.81776 4.3589,-8.2012 v -0.35438 L 902.50217,0.3656954 c -0.84866,-0.2368778 -1.72343,-0.3562493 -2.59634,-0.3562493 -0.1604,0 -0.32081,0.00373 -0.48121,0.011191"
       style="opacity:0.75"
       id="path1957" />
  </g>
  <g
     id="mongodb">
    <path
       d="m 1117.4067,22.30875 c -8.414,-9.928 -15.663,-20.082 -17.135,-22.166 -0.132,-0.19 -0.413,-0.19 -0.545,0 -1.472,2.084 -8.719,12.238 -17.133,22.166 -72.112,91.868 11.382,153.85 11.382,153.85 l 0.677,0.47 c 0.633,9.59 2.206,23.371 2.206,23.371 h 6.283 c 0,0 1.566,-13.722 2.202,-23.309 l 0.681,-0.532 c 0,0 83.493,-61.982 11.382,-153.85 z m -17.406,152.503 h -10e-4 c 0,0 -3.743,-3.193 -4.753,-4.793 l -0.01,-0.172 4.527,-100.017 c 0.01,-0.181 0.21,-0.286 0.362,-0.188 0.065,0.041 0.105,0.111 0.109,0.188 l 4.527,100.017 -0.01,0.172 c -1.009,1.599 -4.753,4.793 -4.753,4.793 z"
       id="path1960" />
  </g>
  <g
     id="mysql">
    <path
       d="m 1384.2213,153.68493 c -10.8873,-0.27233 -19.3186,0.81408 -26.3898,3.80909 -2.0403,0.81524 -5.3012,0.81524 -5.5803,3.40016 1.0957,1.0864 1.2265,2.8529 2.1856,4.35607 1.6276,2.72036 4.4787,6.38733 7.0683,8.29681 2.857,2.17746 5.7139,4.3459 8.7104,6.24986 5.3012,3.27868 11.2884,5.17479 16.4501,8.44097 3.0022,1.90164 5.9842,4.34822 8.9865,6.39402 1.4909,1.08756 2.4355,2.8587 4.3479,3.53182 v -0.41213 c -0.9591,-1.22038 -1.2265,-2.9892 -2.174,-4.35723 -1.3572,-1.34971 -2.7203,-2.58172 -4.0834,-3.93609 -3.9469,-5.30413 -8.8499,-9.92467 -14.1424,-13.73376 -4.3567,-3.00054 -13.8837,-7.08196 -15.645,-12.0998 0,0 -0.1424,-0.14416 -0.2761,-0.27814 2.9935,-0.27611 6.5364,-1.366 9.3905,-2.19112 4.6182,-1.22067 8.8353,-0.94457 13.596,-2.16524 2.1797,-0.54814 4.3566,-1.23288 6.5422,-1.90164 v -1.23288 c -2.4617,-2.4431 -4.223,-5.71276 -6.8067,-8.02304 -6.9317,-5.98305 -14.558,-11.82776 -22.4459,-16.73226 -4.223,-2.72123 -9.6637,-4.48104 -14.154,-6.79916 -1.6247,-0.81756 -4.3421,-1.22038 -5.2983,-2.58841 -2.4501,-2.99153 -3.8161,-6.93111 -5.5803,-10.4734 -3.941,-7.47315 -7.7571,-15.767927 -11.1517,-23.670347 -2.4472,-5.301219 -3.944,-10.602438 -6.9375,-15.502578 -14.0174,-23.128892 -29.2468,-37.131783 -52.6431,-50.8731 -5.0338,-2.859868 -11.018,-4.08345 -17.4063,-5.58023 -3.4062,-0.142413 -6.8038,-0.406892 -10.2042,-0.540585 -2.1798,-0.956196 -4.3596,-3.542865 -6.2603,-4.766447 -7.7571,-4.8943272 -27.7442,-15.5025777 -33.4611,-1.4938743 -3.6736,8.8469903 5.4408,17.5486623 8.5709,22.0390033 2.3106,3.124348 5.307,6.667213 6.9317,10.198453 0.9533,2.31347 1.2265,4.766447 2.1827,7.210704 2.174,5.984216 4.2113,12.651428 7.0741,18.231659 1.491,2.856961 3.1214,5.853429 5.0251,8.425566 1.0986,1.5055 2.9965,2.176871 3.4063,4.632754 -1.8979,2.717456 -2.0461,6.798 -3.1331,10.201359 -4.8943,15.371793 -2.9936,34.415493 3.9469,45.703833 2.171,3.40016 7.3473,10.88406 14.2848,8.02071 6.1208,-2.44426 4.7606,-10.19816 6.5277,-16.99529 0.4069,-1.64385 0.1337,-2.7224 0.9474,-3.80909 v 0.27494 c 1.9037,3.80328 3.8132,7.46676 5.5803,11.28834 4.2229,6.6585 11.5615,13.59745 17.6881,18.218 3.2552,2.45792 5.8418,6.6678 9.9224,8.16865 v -0.41097 h -0.2674 c -0.8196,-1.22067 -2.0403,-1.76881 -3.1302,-2.71687 -2.4471,-2.45007 -5.1617,-5.44392 -7.0741,-8.16283 -5.711,-7.6144 -10.7506,-16.05304 -15.2293,-24.75762 -2.1827,-4.22674 -4.0835,-8.84728 -5.8535,-13.06152 -0.8138,-1.62466 -0.8138,-4.08025 -2.1768,-4.89433 -2.0461,2.9892 -5.031,5.57762 -6.5248,9.23906 -2.5867,5.85605 -2.857,13.06384 -3.8161,20.54891 -0.5406,0.14212 -0.2674,0 -0.5406,0.27029 -4.3479,-1.08756 -5.8447,-5.57558 -7.481,-9.37188 -4.0805,-9.67065 -4.7664,-25.17701 -1.2236,-36.331658 0.9475,-2.851149 5.0397,-11.828926 3.4005,-14.549288 -0.8225,-2.595388 -3.54,-4.077637 -5.0338,-6.126628 -1.7642,-2.583763 -3.6795,-5.841804 -4.8915,-8.704578 -3.2667,-7.614689 -4.9088,-16.051882 -8.4343,-23.666571 -1.6333,-3.542865 -4.4961,-7.216517 -6.8009,-10.474557 -2.5895,-3.673652 -5.4436,-6.257415 -7.4868,-10.605345 -0.6742,-1.499687 -1.6275,-3.949756 -0.5435,-5.577324 0.2674,-1.089888 0.8196,-1.4996866 1.9095,-1.7728853 1.7584,-1.4967806 6.798,0.4039854 8.5622,1.2206753 5.0367,2.034459 9.2539,3.949757 13.4652,6.800906 1.9066,1.363087 3.9469,3.94685 6.3911,4.632754 h 2.8628 c 4.3508,0.94457 9.251,0.264479 13.3344,1.493874 7.2049,2.310564 13.7326,5.711017 19.586,9.384669 17.8132,11.291247 32.5049,27.346035 42.4301,46.522264 1.6363,3.124348 2.3222,5.984216 3.8161,9.242257 2.857,6.678838 6.3969,13.479745 9.2481,20.002505 2.854,6.39402 5.5802,12.91766 9.6666,18.23079 2.0344,2.85173 10.1984,4.34822 13.8721,5.84558 2.7145,1.22039 6.9375,2.31028 9.3875,3.80444 4.6241,2.85173 9.2394,6.1214 13.5989,9.25505 2.1711,1.63251 8.9749,5.02918 9.3847,7.7539"
       id="path1963" />
  </g>
  <g
     id="html">
    <path
       d="M 1442.0484,183.93633 1429.1535,39.304687 h 141.693 L 1557.9379,183.91367 1499.9133,200 Z m 79.7332,-61.42578 -2.0589,23.00547 -19.784,5.33984 v 0.002 l -0.016,0.004 -19.7555,-5.33438 -1.2629,-14.14726 h -17.8066 l 2.4851,27.85195 36.336,10.08711 0.082,-0.0227 v -0.003 l 36.3035,-10.06133 0.2668,-2.99687 4.1684,-46.69961 0.4328,-4.76328 h -64.6442 l -1.621,-18.164457 h 67.8792 l 0.3559,-3.98711 0.8082,-8.992578 0.4242,-4.758984 h -88.8535 l 0.4246,4.758984 4.3598,48.882425 z M 1451.3512,0 v 8.90625 h 8.2461 V 0 h 9.0148 v 26.970312 h -9.0144 v -9.03125 h -8.2461 v 9.03125 h -9.0145 V 0 Z m 21.1793,8.94375 V 0 h 24.8906 v 8.94375 h -7.9395 v 18.026562 h -9.0148 V 8.94375 Z M 1501.3715,0 h 9.3996 l 5.782,9.4765625 L 1522.3293,0 h 9.4031 v 26.970312 h -8.9773 V 13.602344 l -6.202,9.589453 h -0.1551 l -6.2062,-9.589453 v 13.367969 h -8.8203 z m 34.8473,0 h 9.0171 v 18.055469 h 12.677 v 8.914843 h -21.6941 z"
       id="path1966" />
  </g>
  <g
     id="css">
    <path
       d="m 1662.5,0 h 21.4844 v 8.984375 h -12.5 v 8.984375 h 12.5 v 8.984375 H 1662.5 Z m 25.7813,0 h 21.4843 v 7.8125 h -12.5 V 9.375 h 12.5 v 17.96875 h -21.4843 v -8.203125 h 12.5 v -1.5625 h -12.5 z m 25.7812,0 h 21.4844 v 7.8125 h -12.5 V 9.375 h 12.5 v 17.96875 h -21.4844 v -8.203125 h 12.5 v -1.5625 h -12.5 z m 56.784,39.304687 L 1757.9379,183.91367 1699.9133,200 1642.0484,183.93633 1629.1535,39.304687 Z m -49.0649,83.205863 -2.0589,23.00547 -19.784,5.33984 v 0.002 l -0.016,0.004 -19.7555,-5.33438 -1.2629,-14.14726 h -17.8066 l 2.4851,27.85195 36.336,10.08711 0.082,-0.0227 v -0.003 l 36.3035,-10.06133 0.2668,-2.99687 4.1684,-46.69961 0.4328,-4.76328 3.2023,-35.903129 h -88.8535 l 1.6125,17.738672 h 67.8012 l -1.6141,18.164457 h -64.6051 l 1.5899,17.73828 z"
       id="path1969" />
  </g>
  <g
     id="bootstrap">
    <path
       d="m 1822.0629,41.140626 c -0.3773,-10.835938 8.0653,-20.828125 19.477,-20.828125 h 116.9348 c 11.4117,0 19.8543,9.992187 19.4769,20.828125 -0.3625,10.408984 0.1082,23.892578 3.5016,34.886718 3.4043,11.028125 9.1449,17.998829 18.5468,18.894532 v 10.156254 c -9.4019,0.8957 -15.1425,7.8664 -18.5468,18.89453 -3.3934,10.99414 -3.8641,24.47773 -3.5016,34.88711 0.3774,10.83554 -8.0652,20.82773 -19.4769,20.82773 h -116.9348 c -11.4117,0 -19.8543,-9.99219 -19.4766,-20.82773 0.3621,-10.40938 -0.1086,-23.89297 -3.5023,-34.88711 -3.4039,-11.02813 -9.1586,-17.99883 -18.561,-18.89453 V 94.921876 c 9.402,-0.895703 15.1571,-7.866407 18.561,-18.894532 3.3937,-10.99414 3.8644,-24.477734 3.5019,-34.886718 z m 82.2743,101.225394 c 18.4753,0 29.6085,-9.0461 29.6085,-23.9668 0,-11.27852 -7.9437,-19.443751 -19.739,-20.736329 v -0.469922 c 8.666,-1.409765 15.4664,-9.457422 15.4664,-18.444922 0,-12.805859 -10.1102,-21.147656 -25.5164,-21.147656 h -34.6641 v 84.765629 z m -21.3641,-74.015629 h 17.934 c 9.7492,0 15.2855,4.346875 15.2855,12.21836 0,8.40039 -6.439,13.099609 -18.114,13.099609 h -15.1055 z m 0,63.266019 v -27.90274 h 17.8133 c 12.7582,0 19.3781,4.69922 19.3781,13.86328 0,9.16368 -6.4391,14.03946 -18.5957,14.03946 z"
       id="path1972" />
  </g>
  <g
     id="angular">
    <path
       d="M 2021.1,156.3 2006.9,33.2 2100,0 2193.1,33.2 2178.9,156.3 2100,200 Z M 2100,22.1 2041.8,152.6 h 21.7 l 11.7,-29.2 h 49.4 l 11.7,29.2 h 21.7 z m 17,83.3 h -34 l 17,-40.9 z"
       id="path1975" />
  </g>
  <g
     id="docker">
    <path
       d="m 2291.3348,28.455206 c -1.4431,0.588057 -1.0058,2.802194 -1.0058,4.039424 v 10.169502 c 0,1.119682 -0.3665,3.046105 0.4854,3.92465 0.9182,0.947219 3.4805,0.462194 4.6991,0.462194 h 10.1695 c 1.279,0 3.1781,0.351625 4.3781,-0.120319 1.4436,-0.567757 1.0057,-2.84756 1.0057,-4.067123 v -9.9701 c 0,-1.107977 0.359,-3.00785 -0.3473,-3.942499 -0.8557,-1.132198 -3.3887,-0.643747 -4.6377,-0.643747 h -10.1695 c -1.3418,0 -3.3215,-0.363851 -4.5775,0.148018 m -49.2393,22.731766 c -1.2822,0.551546 -0.8194,2.923234 -0.8194,4.039486 v 9.9701 c 0,1.077568 -0.3742,3.043473 0.3197,3.942576 0.8524,1.10389 3.2395,0.64367 4.466,0.64367 h 10.5683 c 1.2441,0 3.2558,0.377867 4.3751,-0.235095 1.2381,-0.677967 0.8093,-2.774878 0.8093,-3.952347 V 55.42586 c 0,-1.048256 0.3783,-3.048657 -0.3473,-3.9015 -0.8299,-0.975674 -3.4792,-0.485344 -4.6377,-0.485344 H 2246.66 c -1.3173,0 -3.3404,-0.378465 -4.5645,0.147956 m 24.7258,0 c -1.3519,0.58046 -1.0187,2.868797 -1.0187,4.039486 v 9.9701 c 0,1.182653 -0.3013,2.958129 0.5113,3.942576 0.9032,1.094119 3.2109,0.64367 4.4737,0.64367 h 10.5683 c 1.2441,0 3.2559,0.377867 4.3751,-0.235095 1.2381,-0.677967 0.8094,-2.774878 0.8094,-3.952347 V 55.42586 c 0,-1.048256 0.3783,-3.048657 -0.3474,-3.9015 -0.8299,-0.975674 -3.4791,-0.485344 -4.6377,-0.485344 h -10.1695 c -1.3178,0 -3.3395,-0.377867 -4.5645,0.147956 m 24.3271,0.05703 c -1.2285,0.691526 -0.8194,2.811568 -0.8194,3.982457 v 9.9701 c 0,1.092723 -0.3645,3.018946 0.3474,3.932407 0.878,1.126821 3.3826,0.653839 4.6377,0.653839 h 10.5683 c 1.2626,0 3.2245,0.362313 4.3651,-0.262812 1.2325,-0.675175 0.8193,-2.755337 0.8193,-3.92463 V 55.42586 c 0,-1.119642 0.3665,-3.046065 -0.4853,-3.92463 -0.8951,-0.923231 -3.3153,-0.462214 -4.4997,-0.462214 h -10.5683 c -1.203,0 -3.2931,-0.398605 -4.3651,0.204985 m 64.7839,4.780065 c -1.3956,2.506683 -3.1207,4.747163 -4.3252,7.377874 -2.9851,6.51905 -4.3255,14.305099 -2.5283,21.336014 0.6479,2.534998 1.5352,5.906686 3.4637,7.776678 v 0.199402 c -11.6643,5.547762 -25.9239,3.589236 -38.4846,3.589236 h -73.9782 -26.321 c -3.2692,0 -8.0938,-0.904687 -10.9671,0.909074 -2.6714,1.686542 -2.7917,4.229316 -2.7917,7.067006 0,4.42034 0.2652,8.78346 0.9131,13.16053 2.8042,18.94578 10.9807,39.19546 29.5954,47.48539 10.5019,4.67698 22.1231,6.26163 33.4996,6.75973 28.7821,1.26042 59.9707,-6.30628 80.5506,-27.72485 6.9853,-7.27 12.8792,-15.56512 17.5033,-24.52625 1.7528,-3.39362 3.3619,-6.86022 4.8674,-10.3689 0.6281,-1.46441 1.0887,-3.71347 2.1276,-4.92164 0.6939,-0.80678 2.2812,-0.41536 3.2264,-0.47996 2.8335,-0.19402 5.6151,-0.55414 8.3748,-1.25324 8.9352,-2.26342 17.2124,-9.267412 19.342,-18.469814 -8.0438,-5.961322 -17.1186,-6.198411 -26.7198,-4.98505 -0.5763,-7.246269 -5.1984,-14.13501 -10.5683,-18.743589 -1.8565,-1.593421 -4.349,-3.631309 -6.7797,-4.187641 m -137.9824,17.695332 c -1.5041,0.597608 -1.2002,2.545167 -1.2002,3.840084 v 10.169502 c 0,1.198605 -0.3434,3.132406 0.539,4.100902 0.8825,0.968894 3.449,0.485344 4.6454,0.485344 h 10.1695 c 1.3173,0 3.3406,0.378465 4.5646,-0.147956 1.2821,-0.551546 0.8193,-2.923234 0.8193,-4.039486 v -9.9701 c 0,-1.077568 0.3743,-3.043473 -0.3196,-3.942576 -0.8728,-1.13041 -3.4066,-0.64367 -4.6654,-0.64367 h -9.9701 c -1.3528,0 -3.3121,-0.35673 -4.5825,0.147956 m 24.327,0 c -1.4594,0.582852 -1.0008,2.788637 -1.0008,4.039486 v 10.169502 c 0,1.048256 -0.3782,3.048657 0.3474,3.9015 0.8299,0.975674 3.4792,0.485344 4.6377,0.485344 h 10.1695 c 1.3172,0 3.3406,0.378465 4.5645,-0.147956 1.2822,-0.551546 0.8193,-2.923234 0.8193,-4.039486 v -9.9701 c 0,-1.077568 0.3743,-3.043473 -0.3196,-3.942576 -0.8728,-1.13041 -3.4066,-0.64367 -4.6654,-0.64367 h -9.9701 c -1.3508,0 -3.3147,-0.358126 -4.5825,0.147956 m 24.7259,0 c -1.5203,0.606182 -1.2002,2.733802 -1.2002,4.039486 v 10.169502 c 0,1.149353 -0.2872,2.961917 0.544,3.9015 0.8594,0.971885 3.4604,0.485344 4.6404,0.485344 h 10.1695 c 1.3173,0 3.3406,0.378465 4.5646,-0.147956 1.2821,-0.551546 0.8193,-2.923234 0.8193,-4.039486 v -9.9701 c 0,-1.077568 0.3743,-3.043473 -0.3196,-3.942576 -0.8728,-1.13041 -3.4066,-0.64367 -4.6655,-0.64367 h -9.9701 c -1.3513,0 -3.3136,-0.357727 -4.5824,0.147956 m 24.332,0 c -1.4431,0.588037 -1.0058,2.802197 -1.0058,4.039486 v 10.169502 c 0,1.119642 -0.3665,3.046065 0.4854,3.92463 0.9182,0.94716 3.4805,0.462214 4.6991,0.462214 h 10.1695 c 1.279,0 3.1781,0.351546 4.3781,-0.120239 1.4436,-0.567897 1.0057,-2.84766 1.0057,-4.067203 v -9.9701 c 0,-1.108077 0.359,-3.00778 -0.3473,-3.942576 -0.8557,-1.132205 -3.3887,-0.64367 -4.6377,-0.64367 h -10.1695 c -1.3418,0 -3.3215,-0.363909 -4.5775,0.147956 m 24.7209,0 c -1.4594,0.582852 -1.0008,2.788637 -1.0008,4.039486 v 10.169502 c 0,1.048456 -0.3783,3.048657 0.3473,3.9015 0.8299,0.975674 3.4792,0.485344 4.6377,0.485344 h 10.1695 c 1.3195,0 3.3376,0.37687 4.5647,-0.147956 1.3849,-0.592424 1.0186,-2.845467 1.0186,-4.039486 v -9.9701 c 0,-1.182853 0.3013,-2.958129 -0.5113,-3.942576 -0.9254,-1.121038 -3.3769,-0.64367 -4.6732,-0.64367 h -9.9701 c -1.3507,0 -3.3146,-0.358126 -4.5824,0.147956"
       id="path1978" />
  </g>
  <g
     id="javascript">
    <path
       d="m 2400,-2.9999999e-8 h 200 V 199.99998 H 2400 Z M 2519.2655,165.38632 c 5.5263,10.91891 16.8204,19.2496 34.3021,19.2496 17.8792,0 31.1924,-9.28458 31.1924,-26.23212 0,-15.72019 -9.0302,-22.71224 -25.0239,-29.57074 l -4.7059,-2.0159 c -8.0763,-3.49761 -11.5739,-5.78378 -11.5739,-11.43084 0,-4.56916 3.4944,-8.06677 9.008,-8.06677 5.4054,0 8.8871,2.27981 12.1144,8.06677 l 14.6582,-9.41177 c -6.2003,-10.906195 -14.8044,-15.071536 -26.7726,-15.071536 -16.8108,0 -27.5676,10.747216 -27.5676,24.864866 0,15.32591 9.0238,22.57551 22.6073,28.36247 l 4.7059,2.01908 c 8.585,3.75517 13.7043,6.04134 13.7043,12.49603 0,5.38632 -4.9825,9.28458 -12.7822,9.28458 -9.2846,0 -14.5342,-4.84261 -18.5692,-11.43085 z m -66.5214,2.02066 c 4.4388,9.39428 13.1669,17.19396 28.2384,17.19396 16.6805,0 28.1082,-8.87122 28.1082,-28.36248 V 91.977736 h -18.8236 v 64.006354 c 0,9.40858 -3.9014,11.8283 -10.0858,11.8283 -6.4674,0 -9.1574,-4.43561 -12.1145,-9.68204 z"
       id="path1981" />
  </g>
  <g
     id="typescript">
    <path
       d="m 2619.5313,2.5000001e-7 h 160.9375 C 2791.2555,2.5000001e-7 2800,8.7445315 2800,19.53125 v 160.9375 C 2800,191.25547 2791.2555,200 2780.4688,200 H 2619.5313 C 2608.7446,200 2600,191.25547 2600,180.46875 V 19.53125 C 2600,8.7445315 2608.7446,2.5e-7 2619.5313,2.5000001e-7 Z M 2723.086,159.15625 c 0.2453,0.20469 0.4929,0.40586 0.7422,0.60352 v -0.77539 z m 0.7422,19.35938 c 3.164,1.64062 7.0312,2.85156 11.3281,3.67187 4.2969,0.82031 8.9844,1.21094 13.6719,1.21094 4.6875,0 8.9843,-0.42969 13.2812,-1.32813 4.2969,-0.89843 7.8125,-2.38281 10.9375,-4.29687 3.1641,-2.07031 5.8594,-4.6875 7.4219,-8.20313 1.5625,-3.51562 2.7734,-7.42187 2.7734,-12.5 0,-3.55468 -0.5468,-6.64062 -1.6015,-9.375 -1.0547,-2.73437 -2.5782,-5.07812 -4.6875,-7.03125 -1.9922,-2.07031 -4.2969,-3.90625 -7.0313,-5.46875 -2.7344,-1.5625 -5.8594,-3.20312 -9.375,-4.6875 -2.5781,-1.05468 -4.6875,-2.07031 -7.0312,-3.08593 -2.0313,-1.01563 -3.7891,-2.03125 -5.0782,-3.04688 -1.4453,-1.05469 -2.539,-2.14844 -3.3203,-3.28125 -0.7812,-1.17187 -1.1718,-2.46094 -1.1718,-3.90625 0,-1.32812 0.3476,-2.53906 1.0546,-3.63281 0.7071,-1.09375 1.6797,-1.99219 2.9297,-2.77344 1.25,-0.78125 2.8125,-1.36719 4.6875,-1.79687 1.836,-0.42969 3.8672,-0.625 6.25,-0.625 1.6407,0 3.3594,0.12109 5.0782,0.36718 1.7968,0.2461 3.6328,0.625 5.4687,1.13282 1.8359,0.50781 3.6328,1.13281 5.4688,1.91406 1.7187,0.78125 3.3203,1.67969 4.6875,2.69531 V 96.109375 c -2.9688,-1.132812 -6.25,-1.992187 -9.7657,-2.539062 -3.5156,-0.546875 -7.4218,-0.820313 -12.1093,-0.820313 -4.6875,0 -8.9844,0.507813 -13.2813,1.484375 -4.2969,0.976563 -7.8125,2.539063 -10.9375,4.6875 -3.1641,2.109375 -5.4687,4.687505 -7.4219,8.203125 -1.8359,3.28125 -2.7343,7.03125 -2.7343,11.71875 0,5.85938 1.6796,10.9375 5.0781,14.84375 3.3594,4.29688 8.5937,7.42188 15.2344,10.54688 2.6953,1.09375 5.0781,2.1875 7.4218,3.24218 2.3438,1.05469 4.2969,2.14844 5.8594,3.28125 1.6797,1.13282 3.0078,2.38282 3.9063,3.71094 0.9765,1.32813 1.4843,2.89063 1.4843,4.6875 0,1.25 -0.3047,2.42188 -0.8984,3.51563 -0.5938,1.09375 -1.5234,2.03125 -2.7734,2.8125 -1.25,0.78125 -2.7735,1.40625 -4.6875,1.875 -1.836,0.42968 -3.9063,0.66406 -6.6407,0.66406 -4.2968,0 -8.5937,-0.74219 -12.5,-2.22656 -3.9968,-1.38086 -7.6558,-3.40352 -10.9765,-6.03711 z m -32.8125,-67.57813 h 25 V 94.921875 h -69.9219 V 110.9375 h 25 v 71.48438 h 19.9219 z"
       id="path1984" />
  </g>
</svg>
