<?xml version="1.0" encoding="UTF-8" standalone="no"?>
<svg
   viewBox="0 0 1500.7849 420.00006"
   version="1.1"
   id="svg88"
   sodipodi:docname="logo_black.svg"
   width="1500.7849"
   height="420.00006"
   inkscape:version="1.1.1 (3bf5ae0d25, 2021-09-20)"
   xmlns:inkscape="http://www.inkscape.org/namespaces/inkscape"
   xmlns:sodipodi="http://sodipodi.sourceforge.net/DTD/sodipodi-0.dtd"
   xmlns:xlink="http://www.w3.org/1999/xlink"
   xmlns="http://www.w3.org/2000/svg"
   xmlns:svg="http://www.w3.org/2000/svg"
   xmlns:bx="https://boxy-svg.com">
  <sodipodi:namedview
     id="namedview90"
     pagecolor="#ffffff"
     bordercolor="#666666"
     borderopacity="1.0"
     inkscape:pageshadow="2"
     inkscape:pageopacity="0.0"
     inkscape:pagecheckerboard="0"
     showgrid="false"
     fit-margin-top="0"
     fit-margin-left="0"
     fit-margin-right="0"
     fit-margin-bottom="0"
     inkscape:zoom="0.22768838"
     inkscape:cx="-28.547789"
     inkscape:cy="700.51883"
     inkscape:window-width="1600"
     inkscape:window-height="829"
     inkscape:window-x="-8"
     inkscape:window-y="-8"
     inkscape:window-maximized="1"
     inkscape:current-layer="svg88" />
  <defs
     id="defs7">
    <linearGradient
       id="black">
      <title
         id="title2">Black</title>
      <stop
         style="stop-color: rgb(0, 0, 0);"
         id="stop4" />
    </linearGradient>
    <linearGradient
       inkscape:collect="always"
       xlink:href="#black"
       id="linearGradient907"
       gradientTransform="scale(1.1668453,0.85701163)"
       x1="516.73602"
       y1="572.16726"
       x2="602.26578"
       y2="572.16726"
       gradientUnits="userSpaceOnUse" />
    <linearGradient
       inkscape:collect="always"
       xlink:href="#black"
       id="linearGradient909"
       gradientTransform="scale(1.1682269,0.85599809)"
       x1="516.03931"
       y1="549.4802"
       x2="601.55351"
       y2="549.4802"
       gradientUnits="userSpaceOnUse" />
    <linearGradient
       inkscape:collect="always"
       xlink:href="#black"
       id="linearGradient911"
       gradientTransform="scale(1.1112043,0.89992455)"
       x1="506.43344"
       y1="433.87415"
       x2="632.33288"
       y2="433.87415"
       gradientUnits="userSpaceOnUse" />
    <linearGradient
       inkscape:collect="always"
       xlink:href="#black"
       id="linearGradient913"
       x1="0"
       y1="0"
       x2="500"
       y2="0"
       gradientUnits="userSpaceOnUse" />
    <linearGradient
       inkscape:collect="always"
       xlink:href="#black"
       id="linearGradient915"
       gradientTransform="scale(0.57124057,1.7505759)"
       x1="35.011519"
       y1="26.277066"
       x2="89.279373"
       y2="26.277066"
       gradientUnits="userSpaceOnUse" />
    <linearGradient
       inkscape:collect="always"
       xlink:href="#black"
       id="linearGradient917"
       gradientTransform="scale(1.741338,0.57427105)"
       x1="26.416468"
       y1="34.82676"
       x2="80.397946"
       y2="34.82676"
       gradientUnits="userSpaceOnUse" />
    <linearGradient
       inkscape:collect="always"
       xlink:href="#black"
       id="linearGradient919"
       gradientTransform="scale(1.8257419,0.54772256)"
       x1="30.124741"
       y1="264.73257"
       x2="79.419771"
       y2="264.73257"
       gradientUnits="userSpaceOnUse" />
    <linearGradient
       inkscape:collect="always"
       xlink:href="#black"
       id="linearGradient921"
       x1="46"
       y1="46"
       x2="145"
       y2="46"
       gradientUnits="userSpaceOnUse" />
    <linearGradient
       inkscape:collect="always"
       xlink:href="#black"
       id="linearGradient923"
       gradientTransform="scale(1.1281521,0.88640526)"
       x1="40.774642"
       y1="51.894999"
       x2="152.4617"
       y2="51.894999"
       gradientUnits="userSpaceOnUse" />
    <linearGradient
       inkscape:collect="always"
       xlink:href="#black"
       id="linearGradient925"
       gradientTransform="scale(1.0093097,0.99077614)"
       x1="2818.2126"
       y1="689.75722"
       x2="3500.0089"
       y2="689.75722"
       gradientUnits="userSpaceOnUse" />
    <linearGradient
       inkscape:collect="always"
       xlink:href="#black"
       id="linearGradient927"
       gradientTransform="scale(0.68373911,1.4625462)"
       x1="960.49132"
       y1="168.55502"
       x2="1097.2388"
       y2="168.55502"
       gradientUnits="userSpaceOnUse" />
    <linearGradient
       inkscape:collect="always"
       xlink:href="#black"
       id="linearGradient929"
       gradientTransform="scale(0.520524,1.921141)"
       x1="524.21021"
       y1="151.75201"
       x2="554.05706"
       y2="151.75201"
       gradientUnits="userSpaceOnUse" />
    <linearGradient
       inkscape:collect="always"
       xlink:href="#black"
       id="linearGradient931"
       gradientTransform="scale(0.56482255,1.7704676)"
       x1="343.81949"
       y1="165.40828"
       x2="375.59584"
       y2="165.40828"
       gradientUnits="userSpaceOnUse" />
    <linearGradient
       inkscape:collect="always"
       xlink:href="#black"
       id="linearGradient933"
       gradientTransform="scale(0.92621,1.0796688)"
       x1="261.97083"
       y1="298.22388"
       x2="309.79475"
       y2="298.22388"
       gradientUnits="userSpaceOnUse" />
    <linearGradient
       inkscape:collect="always"
       xlink:href="#black"
       id="linearGradient935"
       gradientTransform="scale(0.92464938,1.081491)"
       x1="211.08866"
       y1="246.50216"
       x2="262.10908"
       y2="246.50216"
       gradientUnits="userSpaceOnUse" />
    <linearGradient
       inkscape:collect="always"
       xlink:href="#black"
       id="linearGradient937"
       gradientTransform="scale(0.92115188,1.0855973)"
       x1="214.0114"
       y1="245.69331"
       x2="312.65202"
       y2="245.69331"
       gradientUnits="userSpaceOnUse" />
    <linearGradient
       inkscape:collect="always"
       xlink:href="#black"
       id="linearGradient939"
       x1="2.2729184"
       y1="71.295"
       x2="61.664"
       y2="71.295"
       gradientUnits="userSpaceOnUse" />
    <linearGradient
       inkscape:collect="always"
       xlink:href="#black"
       id="linearGradient941"
       gradientTransform="scale(0.96488341,1.0363946)"
       x1="33.060989"
       y1="28.946502"
       x2="226.03767"
       y2="28.946502"
       gradientUnits="userSpaceOnUse" />
    <linearGradient
       inkscape:collect="always"
       xlink:href="#black"
       id="linearGradient943"
       gradientTransform="scale(0.84170354,1.1880668)"
       x1="88.668987"
       y1="0"
       x2="519.6212"
       y2="0"
       gradientUnits="userSpaceOnUse" />
    <linearGradient
       inkscape:collect="always"
       xlink:href="#black"
       id="linearGradient945"
       gradientTransform="scale(1.1800025,0.84745581)"
       x1="180.50809"
       y1="-0.74206337"
       x2="1030.5063"
       y2="-0.74206337"
       gradientUnits="userSpaceOnUse" />
    <linearGradient
       inkscape:collect="always"
       xlink:href="#black"
       id="linearGradient947"
       gradientTransform="scale(0.84170354,1.1880668)"
       x1="88.668987"
       y1="0"
       x2="519.6212"
       y2="0"
       gradientUnits="userSpaceOnUse" />
    <linearGradient
       inkscape:collect="always"
       xlink:href="#black"
       id="linearGradient949"
       gradientTransform="scale(1.1202241,0.89267855)"
       x1="477.93831"
       y1="619.3506"
       x2="934.98973"
       y2="619.3506"
       gradientUnits="userSpaceOnUse" />
    <linearGradient
       inkscape:collect="always"
       xlink:href="#black"
       id="linearGradient951"
       x1="401.817"
       y1="60.058"
       x2="1030.817"
       y2="60.058"
       gradientUnits="userSpaceOnUse" />
    <linearGradient
       inkscape:collect="always"
       xlink:href="#black"
       id="linearGradient953"
       x1="460.817"
       y1="119.058"
       x2="972.817"
       y2="119.058"
       gradientUnits="userSpaceOnUse" />
  </defs>
  <g
     id="g60"
     transform="translate(-1.5234e-5)">
    <g
       transform="matrix(1.154734,0,0,1.154734,-649.8277,-443.9888)"
       id="flutter-logo">
      <title
         id="title9">Flutter</title>
      <polygon
         class="st1"
         points="602.951,517.054 629.551,490.354 702.751,563.654 649.651,563.654 649.551,563.654 "
         style="opacity:0.72;fill:url(#linearGradient907)"
         id="polygon11" />
      <polygon
         class="st1"
         points="602.851,516.954 629.551,543.554 702.751,470.354 649.551,470.354 "
         style="opacity:0.72;fill:url(#linearGradient909)"
         id="polygon13" />
      <polygon
         class="st1"
         points="562.751,477.054 589.451,503.754 702.651,390.554 649.551,390.554 649.451,390.454 "
         style="opacity:0.72;fill:url(#linearGradient911)"
         id="polygon15" />
    </g>
    <g
       transform="matrix(0.4,0,0,0.4,420.78491,6.881684)"
       id="kotlin-logo">
      <title
         id="title18">Kotlin</title>
      <polygon
         class="st0"
         points="0,0 500,0 250,250 500,500 0,500 "
         style="fill:url(#linearGradient913)"
         id="polygon20" />
    </g>
    <g
       transform="matrix(1.315789,0,0,1.315789,174.51566,-26.315781)"
       id="dart_logo">
      <path
         d="m 25,115 c -3.08,-3.17 -5,-7.63 -5,-12 0,-2.02 1.14,-5.18 2,-7 L 46,46 v 81 c 0,8.02 1.01,9.99 5,14 z"
         style="fill:url(#linearGradient915)"
         id="path23" />
      <path
         d="M 140,51 114,25 c -2.27,-2.28 -7,-5 -11,-5 -3.44,0 -6.81,0.69 -9,2 L 46,46 Z"
         style="opacity:0.5;fill:url(#linearGradient917)"
         id="path25" />
      <path
         d="M 145,172 H 82 L 55,145 h 90 z"
         style="opacity:0.5;fill:url(#linearGradient919)"
         id="path27" />
      <path
         d="m 46,127 c 0,8.02 1.01,9.99 5,14 l 4,4 h 90 L 101,95 46,46 Z"
         style="opacity:0.75;fill:url(#linearGradient921)"
         id="path29" />
      <path
         d="M 126,46 H 46 l 99,99 h 27 V 83 L 140,51 c -4.49,-4.51 -8.49,-5 -14,-5 z"
         style="fill:url(#linearGradient923)"
         id="path31" />
      <polygon
         opacity="0.2"
         fill="#263238"
         points="144,144 145,145 172,145 172,83 171,82 171,144 "
         id="polygon33" />
    </g>
    <g
       id="mysql_logo"
       transform="matrix(0.290637,0,0,-0.290637,474.08264,412.38327)">
      <title
         id="title36">MySql</title>
      <g
         id="g39">
        <path
           d="m 3478.303,836.434 c -37.46,0.937 -66.47,-2.801 -90.8,-13.106 -7.02,-2.805 -18.24,-2.805 -19.2,-11.699 3.77,-3.738 4.22,-9.816 7.52,-14.988 5.6,-9.36 15.41,-21.977 24.32,-28.547 9.83,-7.492 19.66,-14.953 29.97,-21.504 18.24,-11.281 38.84,-17.805 56.6,-29.043 10.33,-6.543 20.59,-14.961 30.92,-22 5.13,-3.742 8.38,-9.836 14.96,-12.152 v 1.418 c -3.3,4.199 -4.22,10.285 -7.48,14.992 -4.67,4.644 -9.36,8.883 -14.05,13.543 -13.58,18.25 -30.45,34.148 -48.66,47.254 -14.99,10.324 -47.77,24.367 -53.83,41.632 0,0 -0.49,0.496 -0.95,0.957 10.3,0.95 22.49,4.7 32.31,7.539 15.89,4.2 30.4,3.25 46.78,7.45 7.5,1.886 14.99,4.242 22.51,6.543 v 4.242 c -8.47,8.406 -14.53,19.656 -23.42,27.605 -23.85,20.586 -50.09,40.696 -77.23,57.571 -14.53,9.363 -33.25,15.418 -48.7,23.394 -5.59,2.813 -14.94,4.199 -18.23,8.906 -8.43,10.293 -13.13,23.848 -19.2,36.036 -13.56,25.713 -26.69,54.253 -38.37,81.443 -8.42,18.24 -13.57,36.48 -23.87,53.34 -48.23,79.58 -100.63,127.76 -181.13,175.04 -17.32,9.84 -37.91,14.05 -59.89,19.2 -11.72,0.49 -23.41,1.4 -35.11,1.86 -7.5,3.29 -15,12.19 -21.54,16.4 -26.69,16.84 -95.46,53.34 -115.13,5.14 -12.64,-30.44 18.72,-60.38 29.49,-75.83 7.95,-10.75 18.26,-22.94 23.85,-35.09 3.28,-7.96 4.22,-16.4 7.51,-24.81 7.48,-20.59 14.49,-43.53 24.34,-62.73 5.13,-9.83 10.74,-20.14 17.29,-28.99 3.78,-5.18 10.31,-7.49 11.72,-15.94 -6.53,-9.35 -7.04,-23.39 -10.78,-35.1 -16.84,-52.89 -10.3,-118.414 13.58,-157.254 7.47,-11.699 25.28,-37.449 49.15,-27.597 21.06,8.41 16.38,35.089 22.46,58.476 1.4,5.656 0.46,9.367 3.26,13.106 v -0.946 c 6.55,-13.086 13.12,-25.691 19.2,-38.84 14.53,-22.91 39.78,-46.785 60.86,-62.683 11.2,-8.457 20.1,-22.942 34.14,-28.106 v 1.414 h -0.92 c -2.82,4.2 -7.02,6.086 -10.77,9.348 -8.42,8.43 -17.76,18.731 -24.34,28.086 -19.65,26.199 -36.99,55.234 -52.4,85.184 -7.51,14.543 -14.05,30.441 -20.14,44.941 -2.8,5.59 -2.8,14.039 -7.49,16.84 -7.04,-10.285 -17.31,-19.191 -22.45,-31.789 -8.9,-20.149 -9.83,-44.949 -13.13,-70.703 -1.86,-0.489 -0.92,0 -1.86,-0.93 -14.96,3.742 -20.11,19.184 -25.74,32.246 -14.04,33.274 -16.4,86.627 -4.21,125.007 3.26,9.81 17.34,40.7 11.7,50.06 -2.83,8.93 -12.18,14.03 -17.32,21.08 -6.07,8.89 -12.66,20.1 -16.83,29.95 -11.24,26.2 -16.89,55.23 -29.02,81.43 -5.62,12.19 -15.47,24.83 -23.4,36.04 -8.91,12.64 -18.73,21.53 -25.76,36.49 -2.32,5.16 -5.6,13.59 -1.87,19.19 0.92,3.75 2.82,5.16 6.57,6.1 6.05,5.15 23.39,-1.39 29.46,-4.2 17.33,-7 31.84,-13.59 46.33,-23.4 6.56,-4.69 13.58,-13.58 21.99,-15.94 h 9.85 c 14.97,-3.25 31.83,-0.91 45.88,-5.14 24.79,-7.95 47.25,-19.65 67.39,-32.29 61.29,-38.85 111.84,-94.09 145.99,-160.07 5.63,-10.75 7.99,-20.59 13.13,-31.8 9.83,-22.98 22.01,-46.38 31.82,-68.823 9.82,-22 19.2,-44.446 33.26,-62.727 7,-9.812 35.09,-14.961 47.73,-20.113 9.34,-4.199 23.87,-7.949 32.3,-13.09 15.91,-9.812 31.79,-21.062 46.79,-31.844 7.47,-5.617 30.88,-17.304 32.29,-26.679"
           style="fill:url(#linearGradient925);fill-opacity:1;fill-rule:evenodd;stroke:none"
           id="path28" />
      </g>
    </g>
    <g
       transform="translate(477.30963,-235.87108)"
       id="mongodb-logo">
      <title
         id="title42">MongoDb</title>
      <path
         d="m 720.882,268.828 c -8.414,-9.928 -15.663,-20.082 -17.135,-22.166 -0.132,-0.19 -0.413,-0.19 -0.545,0 -1.472,2.084 -8.719,12.238 -17.133,22.166 -72.112,91.868 11.382,153.85 11.382,153.85 l 0.677,0.47 c 0.633,9.59 2.206,23.371 2.206,23.371 h 6.283 c 0,0 1.566,-13.722 2.202,-23.309 l 0.681,-0.532 c 0,0 83.493,-61.982 11.382,-153.85 z m -17.406,152.503 h -10e-4 c 0,0 -3.743,-3.193 -4.753,-4.793 l -0.009,-0.172 4.527,-100.017 c 0.008,-0.181 0.21,-0.286 0.362,-0.188 0.065,0.041 0.105,0.111 0.109,0.188 l 4.527,100.017 -0.009,0.172 c -1.009,1.599 -4.753,4.793 -4.753,4.793 z"
         style="fill:url(#linearGradient927)"
         id="path44" />
    </g>
    <g
       transform="matrix(1.436492,0,0,-1.436492,0.209277,1901.2913)"
       id="nodejs"
       bx:origin="0 1">
      <g
         transform="matrix(1.298427,0,0,1.298427,355.38699,835.49365)"
         id="g54">
        <path
           d="m 285.861,348.877 h -0.212 c 0.517,-0.298 0.94,-0.686 1.286,-1.128 L 272.864,321.983 288,296.124 v -0.19 c 0,-1.814 -0.768,-3.489 -2.337,-4.397 h 0.199 c 1.571,0.908 2.538,2.583 2.538,4.397 v 48.546 c 0,1.815 -0.967,3.491 -2.539,4.397 z"
           style="opacity:0.8;fill:url(#linearGradient929);stroke:none"
           id="path70" />
        <path
           d="m 196.736,348.877 c -1.572,-0.906 -2.539,-2.582 -2.539,-4.395 v -48.548 c 0,-1.133 0.378,-2.213 1.044,-3.084 l 16.904,28.918 -15.008,27.341 z"
           style="opacity:0.7;fill:url(#linearGradient931);stroke:none"
           id="path48" />
        <path
           d="m 285.649,348.877 -41.843,24.255 c -0.37,0.214 -0.762,0.373 -1.166,0.485 l 30.224,-51.634 14.071,25.766 c -0.346,0.442 -0.769,0.83 -1.286,1.128 z"
           style="opacity:0.59;fill:url(#linearGradient933);fill-opacity:1;fill-rule:nonzero;stroke:none"
           id="path88" />
        <path
           d="m 195.183,292.751 c 0.398,-0.479 0.878,-0.896 1.428,-1.214 l 42.093,-24.274 c 1.134,-0.654 2.43,-0.828 3.655,-0.537 l -30.214,55.042 z"
           style="fill:url(#linearGradient935);fill-opacity:1;fill-rule:nonzero;stroke:none"
           id="path51" />
        <path
           d="m 240.99,373.802 c -0.771,-0.048 -1.533,-0.272 -2.224,-0.671 l -41.629,-24.022 45.223,-82.385 c 0.473,0.112 0.935,0.286 1.373,0.539 l 41.93,24.274 c 1.569,0.908 2.337,2.583 2.337,4.397 v 0.19 l -45.36,77.493 c -0.455,0.127 -0.924,0.191 -1.392,0.191 -0.086,0 -0.172,-0.002 -0.258,-0.006"
           style="opacity:0.76;fill:url(#linearGradient937);stroke:none"
           id="path-1"
           transform="translate(6e-6)" />
      </g>
    </g>
    <g
       transform="matrix(3.36752,0,0,3.36752,633.12982,-233.20619)"
       id="g-1">
      <path
         d="m 61.664,89.873 v 22.235 c 0,0.709 0,1.418 -0.004,2.128 -0.004,0.598 -0.011,1.194 -0.027,1.791 -0.035,1.302 -0.112,2.615 -0.343,3.901 -0.235,1.307 -0.618,2.523 -1.222,3.71 -0.594,1.166 -1.369,2.233 -2.295,3.157 -0.925,0.926 -1.991,1.702 -3.158,2.295 -1.186,0.604 -2.401,0.987 -3.707,1.222 -1.288,0.231 -2.6,0.308 -3.902,0.343 -0.598,0.016 -1.195,0.023 -1.792,0.027 -0.709,0.005 -1.419,0.004 -2.128,0.004 H 20.851 c -0.71,0 -1.418,0.001 -2.127,-0.004 -0.598,-0.004 -1.196,-0.011 -1.793,-0.027 -1.301,-0.035 -2.615,-0.112 -3.902,-0.343 -1.306,-0.235 -2.521,-0.618 -3.707,-1.222 -1.167,-0.594 -2.234,-1.369 -3.159,-2.295 -0.925,-0.924 -1.701,-1.991 -2.294,-3.157 -0.604,-1.187 -0.987,-2.403 -1.222,-3.71 -0.231,-1.286 -0.308,-2.599 -0.343,-3.901 -0.016,-0.597 -0.023,-1.194 -0.027,-1.791 -0.005,-0.71 -0.004,-1.419 -0.004,-2.128 V 89.873 c 0,-0.709 -0.001,-1.419 0.004,-2.128 0.004,-0.597 0.011,-1.194 0.027,-1.792 0.035,-1.301 0.112,-2.614 0.343,-3.901 0.235,-1.306 0.618,-2.522 1.222,-3.709 0.593,-1.166 1.369,-2.233 2.294,-3.158 0.232,-0.231 0.472,-0.453 0.72,-0.665 0.745,-0.636 1.564,-1.184 2.439,-1.629 0.296,-0.151 0.595,-0.288 0.896,-0.413 0.903,-0.373 1.832,-0.633 2.811,-0.809 0.965,-0.174 1.946,-0.26 2.924,-0.307 0.327,-0.016 0.653,-0.027 0.978,-0.036 0.597,-0.016 1.195,-0.023 1.792,-0.027 0.709,-0.004 1.418,-0.004 2.128,-0.004 h 22.235 c 0.709,0 1.419,0 2.128,0.004 0.597,0.004 1.194,0.01 1.792,0.027 1.302,0.035 2.614,0.111 3.902,0.343 1.306,0.235 2.521,0.618 3.707,1.222 1.167,0.593 2.234,1.369 3.159,2.294 0.925,0.925 1.7,1.992 2.294,3.158 0.604,1.187 0.988,2.403 1.222,3.709 0.231,1.287 0.308,2.6 0.343,3.901 0.017,0.598 0.023,1.195 0.027,1.792 0.004,0.709 0.004,1.419 0.004,2.128 z m -12.33,18.083 c -0.002,-0.002 -0.003,-0.003 -0.005,-0.005 0.066,-0.224 0.134,-0.446 0.191,-0.675 2.465,-9.821 -3.551,-21.432 -13.731,-27.546 4.461,6.048 6.434,13.374 4.681,19.78 -0.156,0.571 -0.344,1.12 -0.552,1.653 -0.225,-0.148 -0.509,-0.316 -0.891,-0.527 0,0 -10.126,-6.252 -21.102,-17.312 -0.288,-0.29 5.852,8.777 12.822,16.14 -3.284,-1.843 -12.434,-8.5 -18.227,-13.802 0.712,1.187 1.558,2.329 2.489,3.43 4.837,6.135 11.146,13.704 18.704,19.517 -5.31,3.25 -12.814,3.502 -20.285,0.003 -1.848,-0.866 -3.585,-1.911 -5.193,-3.098 3.162,5.058 8.033,9.423 13.961,11.971 7.069,3.038 14.099,2.832 19.335,0.05 l -0.004,0.006 c 0.024,-0.016 0.055,-0.032 0.079,-0.047 0.215,-0.116 0.429,-0.234 0.637,-0.358 2.516,-1.306 7.485,-2.631 10.152,2.559 0.654,1.27 2.042,-5.46 -3.061,-11.739 z"
         style="fill:url(#linearGradient939);fill-rule:nonzero"
         id="path57" />
    </g>
  </g>
  <g
     transform="translate(80.784729,70.000032)"
     id="g86">
    <g
       transform="translate(975,120.00001)"
       id="angular-logo">
      <title
         id="title62">Angular</title>
      <path
         d="M 46.1,186.3 31.9,63.2 125,30 218.1,63.2 203.9,186.3 125,230 Z M 125,52.1 66.8,182.6 h 21.7 l 11.7,-29.2 h 49.4 l 11.7,29.2 H 183 Z m 17,83.3 h -34 l 17,-40.9 z"
         class="st0"
         style="fill:url(#linearGradient941)"
         id="angular" />
    </g>
    <g
       id="css-logo"
       transform="matrix(0.390625,0,0,0.390625,120.04648,150.00001)">
      <title
         id="title66">Css</title>
      <path
         id="css"
         d="m 160,0 h 55 v 23 h -32 v 23 h 32 v 23 h -55 z m 66,0 h 55 v 20 h -32 v 4 h 32 V 70 H 226 V 49 h 32 v -4 h -32 z m 66,0 h 55 v 20 h -32 v 4 h 32 V 70 H 292 V 49 h 32 V 45 H 292 Z M 437.367,100.62 404.321,470.819 255.778,512 107.644,470.877 74.633,100.62 Z m -125.606,213.007 -5.271,58.894 -50.647,13.67 v 0.004 l -0.042,0.011 -50.574,-13.656 -3.233,-36.217 h -45.585 l 6.362,71.301 93.02,25.823 0.209,-0.058 v -0.008 l 92.937,-25.757 0.683,-7.672 10.671,-119.551 1.108,-12.194 8.198,-91.912 H 142.132 l 4.128,45.411 h 173.571 l -4.132,46.501 H 150.31 l 4.07,45.41 z"
         style="fill:url(#linearGradient943)" />
    </g>
    <g
       id="docker-logo"
       transform="matrix(0.199402,0,0,0.199402,1177.5273,178.30713)">
      <title
         id="title70">Docker</title>
      <path
         style="fill:url(#linearGradient945);stroke:none"
         d="M 671.044,0.74231 C 663.807,3.69141 666,14.7953 666,21 v 51 c 0,5.6152 -1.838,15.2762 2.434,19.6821 C 673.039,96.4324 685.889,94 692,94 h 51 c 6.414,0 15.938,1.7634 21.956,-0.6034 C 772.196,90.5493 770,79.1161 770,73 V 23 C 770,17.4435 771.8,7.91565 768.258,3.22839 763.967,-2.44958 751.264,0 745,0 h -51 c -6.729,0 -16.657,-1.82471 -22.956,0.74231 M 424.109,114.742 C 417.679,117.508 420,129.402 420,135 v 50 c 0,5.404 -1.877,15.263 1.603,19.772 4.275,5.536 16.246,3.228 22.397,3.228 h 53 c 6.239,0 16.328,1.895 21.941,-1.179 C 525.15,203.421 523,192.905 523,187 v -51 c 0,-5.257 1.897,-15.289 -1.742,-19.566 C 517.096,111.541 503.81,114 498,114 h -51 c -6.606,0 -16.752,-1.898 -22.891,0.742 m 124,0 C 541.329,117.653 543,129.129 543,135 v 50 c 0,5.931 -1.511,14.835 2.564,19.772 4.53,5.487 16.103,3.228 22.436,3.228 h 53 c 6.239,0 16.328,1.895 21.941,-1.179 C 649.15,203.421 647,192.905 647,187 v -51 c 0,-5.257 1.897,-15.289 -1.742,-19.566 C 641.096,111.541 627.81,114 622,114 h -51 c -6.609,0 -16.748,-1.895 -22.891,0.742 m 122,0.286 C 663.948,118.496 666,129.128 666,135 v 50 c 0,5.48 -1.828,15.14 1.742,19.721 4.403,5.651 16.964,3.279 23.258,3.279 h 53 c 6.332,0 16.171,1.817 21.891,-1.318 C 772.072,203.296 770,192.864 770,187 v -51 c 0,-5.615 1.838,-15.276 -2.434,-19.682 C 763.077,111.688 750.94,114 745,114 h -53 c -6.033,0 -16.515,-1.999 -21.891,1.028 M 995,139 c -6.999,12.571 -15.65,23.807 -21.691,37 -14.97,32.693 -21.692,71.74 -12.679,107 3.249,12.713 7.699,29.622 17.37,39 v 1 c -58.496,27.822 -130.008,18 -193,18 H 414 282 c -16.395,0 -40.59,-4.537 -55,4.559 -13.397,8.458 -14,21.21 -14,35.441 0,22.168 1.33,44.049 4.579,66 14.063,95.013 55.068,196.565 148.421,238.139 52.667,23.455 110.947,31.402 168,33.9 144.342,6.321 300.753,-31.626 403.961,-139.04 35.031,-36.459 64.589,-78.059 87.779,-122.999 8.79,-17.019 16.86,-34.404 24.41,-52 3.15,-7.344 5.46,-18.623 10.67,-24.682 3.48,-4.046 11.44,-2.083 16.18,-2.407 14.21,-0.973 28.16,-2.779 42,-6.285 44.81,-11.351 86.32,-46.476 97,-92.626 -40.34,-29.896 -85.85,-31.085 -134,-25 -2.89,-36.34 -26.07,-70.887 -53,-93.999 C 1019.69,152.01 1007.19,141.79 995,139 M 303.019,227.742 C 295.476,230.739 297,240.506 297,247 v 51 c 0,6.011 -1.722,15.709 2.703,20.566 C 304.129,323.425 317,321 323,321 h 51 c 6.606,0 16.753,1.898 22.891,-0.742 C 403.321,317.492 401,305.598 401,300 v -50 c 0,-5.404 1.877,-15.263 -1.603,-19.772 C 395.02,224.559 382.313,227 376,227 h -50 c -6.784,0 -16.61,-1.789 -22.981,0.742 m 122,0 C 417.7,230.665 420,241.727 420,248 v 51 c 0,5.257 -1.897,15.289 1.742,19.566 C 425.904,323.459 439.19,321 445,321 h 51 c 6.606,0 16.753,1.898 22.891,-0.742 C 525.321,317.492 523,305.598 523,300 v -50 c 0,-5.404 1.877,-15.263 -1.603,-19.772 C 517.02,224.559 504.313,227 498,227 h -50 c -6.774,0 -16.623,-1.796 -22.981,0.742 m 124,0 C 541.395,230.782 543,241.452 543,248 v 51 c 0,5.764 -1.44,14.854 2.728,19.566 4.31,4.874 17.354,2.434 23.272,2.434 h 51 c 6.606,0 16.753,1.898 22.891,-0.742 C 649.321,317.492 647,305.598 647,300 v -50 c 0,-5.404 1.877,-15.263 -1.603,-19.772 C 641.02,224.559 628.313,227 622,227 h -50 c -6.777,0 -16.618,-1.794 -22.981,0.742 m 122.025,0 C 663.807,230.691 666,241.795 666,248 v 51 c 0,5.615 -1.838,15.276 2.434,19.682 4.605,4.75 17.455,2.318 23.566,2.318 h 51 c 6.414,0 15.938,1.763 21.956,-0.603 C 772.196,317.549 770,306.116 770,300 v -50 c 0,-5.557 1.8,-15.084 -1.742,-19.772 C 763.967,224.55 751.264,227 745,227 h -51 c -6.729,0 -16.657,-1.825 -22.956,0.742 m 123.975,0 C 787.7,230.665 790,241.727 790,248 v 51 c 0,5.258 -1.897,15.289 1.742,19.566 C 795.904,323.459 809.19,321 815,321 h 51 c 6.617,0 16.738,1.89 22.892,-0.742 C 895.837,317.287 894,305.988 894,300 v -50 c 0,-5.932 1.511,-14.835 -2.564,-19.772 C 886.795,224.606 874.501,227 868,227 h -50 c -6.774,0 -16.623,-1.796 -22.981,0.742"
         id="docker" />
    </g>
    <g
       transform="matrix(0.390625,0,0,0.390625,-99.953522,150.00001)"
       id="html-logo">
      <title
         id="title74">HTML</title>
      <path
         d="M 107.644,470.877 74.633,100.62 H 437.367 L 404.321,470.819 255.778,512 Z m 204.117,-157.25 -5.271,58.894 -50.647,13.67 v 0.004 l -0.042,0.011 -50.574,-13.656 -3.233,-36.217 h -45.585 l 6.362,71.301 93.02,25.823 0.209,-0.058 v -0.008 l 92.937,-25.757 0.683,-7.672 10.671,-119.551 1.108,-12.194 H 195.91 l -4.15,-46.501 h 173.771 l 0.911,-10.207 2.069,-23.021 1.086,-12.183 H 142.132 l 1.087,12.183 11.161,125.139 z M 131.459,0 v 22.8 h 21.11 V 0 h 23.078 V 69.044 H 152.57 v -23.12 h -21.11 v 23.12 H 108.383 V 0 Z m 54.219,22.896 V 0 h 63.72 V 22.896 H 229.073 V 69.044 H 205.995 V 22.896 Z M 259.511,0 h 24.063 L 298.376,24.26 313.163,0 h 24.072 V 69.044 H 314.253 V 34.822 l -15.877,24.549 h -0.397 L 282.091,34.822 v 34.222 h -22.58 z m 89.209,0 h 23.084 v 46.222 h 32.453 V 69.044 H 348.72 Z"
         style="fill:url(#linearGradient947)"
         id="html" />
    </g>
    <g
       id="bootstrap-logo"
       transform="matrix(0.390625,0,0,0.390625,570.86023,-45.65667)">
      <title
         id="title78">Bootstrap</title>
      <path
         d="m 591.879,606.201 c -0.966,-27.74 20.647,-53.32 49.861,-53.32 h 299.353 c 29.214,0 50.827,25.58 49.861,53.32 -0.928,26.647 0.277,61.165 8.964,89.31 8.715,28.232 23.411,46.077 47.48,48.37 v 26 c -24.069,2.293 -38.765,20.138 -47.48,48.37 -8.687,28.145 -9.892,62.663 -8.964,89.311 0.966,27.739 -20.647,53.319 -49.861,53.319 H 641.74 c -29.214,0 -50.827,-25.58 -49.86,-53.319 0.927,-26.648 -0.278,-61.166 -8.966,-89.311 -8.714,-28.232 -23.446,-46.077 -47.516,-48.37 v -26 c 24.069,-2.293 38.802,-20.138 47.516,-48.37 8.688,-28.145 9.893,-62.663 8.965,-89.31 z m 210.622,259.137 c 47.297,0 75.798,-23.158 75.798,-61.355 0,-28.873 -20.336,-49.776 -50.532,-53.085 v -1.203 c 22.185,-3.609 39.594,-24.211 39.594,-47.219 0,-32.783 -25.882,-54.138 -65.322,-54.138 h -88.74 v 217 z m -54.692,-189.48 h 45.911 c 24.958,0 39.131,11.128 39.131,31.279 0,21.505 -16.484,33.535 -46.372,33.535 h -38.67 z m 0,161.961 v -71.431 h 45.602 c 32.661,0 49.608,12.03 49.608,35.49 0,23.459 -16.484,35.941 -47.605,35.941 z"
         style="fill:url(#linearGradient949)"
         id="bootstrap" />
    </g>
    <g
       transform="matrix(0.317965,0,0,0.317965,212.23627,130.90367)"
       id="javascript-logo">
      <path
         d="m 401.817,60.058 h 629 v 629 h -629 z m 375.09,520.14 c 17.38,34.34 52.9,60.54 107.88,60.54 56.23,0 98.1,-29.2 98.1,-82.5 0,-49.44 -28.4,-71.43 -78.7,-93 l -14.8,-6.34 c -25.4,-11 -36.4,-18.19 -36.4,-35.95 0,-14.37 10.99,-25.37 28.33,-25.37 17,0 27.95,7.17 38.1,25.37 l 46.1,-29.6 c -19.5,-34.3 -46.56,-47.4 -84.2,-47.4 -52.87,0 -86.7,33.8 -86.7,78.2 0,48.2 28.38,71 71.1,89.2 l 14.8,6.35 c 27,11.81 43.1,19 43.1,39.3 0,16.94 -15.67,29.2 -40.2,29.2 -29.2,0 -45.71,-15.23 -58.4,-35.95 z m -209.21,6.355 c 13.96,29.545 41.41,54.075 88.81,54.075 52.46,0 88.4,-27.9 88.4,-89.2 v -202.1 h -59.2 v 201.3 c 0,29.59 -12.27,37.2 -31.72,37.2 -20.34,0 -28.8,-13.95 -38.1,-30.45 z"
         style="fill:url(#linearGradient951)"
         id="javascript" />
    </g>
    <g
       transform="matrix(0.390625,0,0,0.390625,379.99335,103.49294)"
       id="typescript-logo">
      <path
         d="m 510.817,119.058 h 412 c 27.614,0 50,22.386 50,50 v 412 c 0,27.614 -22.386,50 -50,50 h -412 c -27.614,0 -50,-22.386 -50,-50 v -412 c 0,-27.614 22.386,-50 50,-50 z m 265.1,407.44 c 0.628,0.524 1.262,1.039 1.9,1.545 v -1.985 z m 1.9,49.56 c 8.1,4.2 18,7.3 29,9.4 11,2.1 23,3.1 35,3.1 12,0 23,-1.1 34,-3.4 11,-2.3 20,-6.1 28,-11 8.1,-5.3 15,-12 19,-21 4,-9 7.1,-19 7.1,-32 0,-9.1 -1.4,-17 -4.1,-24 -2.7,-7 -6.6,-13 -12,-18 -5.1,-5.3 -11,-10 -18,-14 -7,-4 -15,-8.2 -24,-12 -6.6,-2.7 -12,-5.3 -18,-7.9 -5.2,-2.6 -9.7,-5.2 -13,-7.8 -3.7,-2.7 -6.5,-5.5 -8.5,-8.4 -2,-3 -3,-6.3 -3,-10 0,-3.4 0.89,-6.5 2.7,-9.3 1.81,-2.8 4.3,-5.1 7.5,-7.1 3.2,-2 7.2,-3.5 12,-4.6 4.7,-1.1 9.9,-1.6 16,-1.6 4.2,0 8.6,0.31 13,0.94 4.6,0.63 9.3,1.6 14,2.9 4.7,1.3 9.3,2.9 14,4.9 4.4,2 8.5,4.3 12,6.9 v -47 c -7.6,-2.9 -16,-5.1 -25,-6.5 -9,-1.4 -19,-2.1 -31,-2.1 -12,0 -23,1.3 -34,3.8 -11,2.5 -20,6.5 -28,12 -8.1,5.4 -14,12 -19,21 -4.7,8.4 -7,18 -7,30 0,15 4.3,28 13,38 8.6,11 22,19 39,27 6.9,2.8 13,5.6 19,8.3 6,2.7 11,5.5 15,8.4 4.3,2.9 7.7,6.1 10,9.5 2.5,3.4 3.8,7.4 3.8,12 0,3.2 -0.78,6.2 -2.3,9 -1.52,2.8 -3.9,5.2 -7.1,7.2 -3.2,2 -7.1,3.6 -12,4.8 -4.7,1.1 -10,1.7 -17,1.7 -11,0 -22,-1.9 -32,-5.7 -10.232,-3.535 -19.599,-8.713 -28.1,-15.455 z m -84,-173 h 64 v -41 h -179 v 41 h 64 v 183 h 51 z"
         style="fill:url(#linearGradient953)"
         id="typescript" />
    </g>
  </g>
</svg>
