<?xml version="1.0" encoding="UTF-8" standalone="no"?>
<svg
   viewBox="0 0 1500.7849 420.00006"
   version="1.1"
   id="svg88"
   sodipodi:docname="logo_black2.svg"
   width="1500.7849"
   height="420.00006"
   inkscape:version="1.1.1 (3bf5ae0d25, 2021-09-20)"
   xmlns:inkscape="http://www.inkscape.org/namespaces/inkscape"
   xmlns:sodipodi="http://sodipodi.sourceforge.net/DTD/sodipodi-0.dtd"
   xmlns:xlink="http://www.w3.org/1999/xlink"
   xmlns="http://www.w3.org/2000/svg"
   xmlns:svg="http://www.w3.org/2000/svg"
   xmlns:bx="https://boxy-svg.com">
  <sodipodi:namedview
     id="namedview90"
     pagecolor="#ffffff"
     bordercolor="#666666"
     borderopacity="1.0"
     inkscape:pageshadow="2"
     inkscape:pageopacity="0.0"
     inkscape:pagecheckerboard="0"
     showgrid="false"
     fit-margin-top="0"
     fit-margin-left="0"
     fit-margin-right="0"
     fit-margin-bottom="0"
     inkscape:zoom="0.22768838"
     inkscape:cx="-28.547789"
     inkscape:cy="700.51883"
     inkscape:window-width="1600"
     inkscape:window-height="829"
     inkscape:window-x="-8"
     inkscape:window-y="-8"
     inkscape:window-maximized="1"
     inkscape:current-layer="dart_logo" />
  <defs
     id="defs7">
    <linearGradient
       id="black">
      <title
         id="title2">Black</title>
      <stop
         style="stop-color: rgb(0, 0, 0);"
         id="stop4" />
    </linearGradient>
    <linearGradient
       inkscape:collect="always"
       xlink:href="#black"
       id="linearGradient907"
       gradientTransform="scale(1.1668453,0.85701163)"
       x1="516.73602"
       y1="572.16726"
       x2="602.26578"
       y2="572.16726"
       gradientUnits="userSpaceOnUse" />
    <linearGradient
       inkscape:collect="always"
       xlink:href="#black"
       id="linearGradient909"
       gradientTransform="scale(1.1682269,0.85599809)"
       x1="516.03931"
       y1="549.4802"
       x2="601.55351"
       y2="549.4802"
       gradientUnits="userSpaceOnUse" />
    <linearGradient
       inkscape:collect="always"
       xlink:href="#black"
       id="linearGradient911"
       gradientTransform="scale(1.1112043,0.89992455)"
       x1="506.43344"
       y1="433.87415"
       x2="632.33288"
       y2="433.87415"
       gradientUnits="userSpaceOnUse" />
    <linearGradient
       inkscape:collect="always"
       xlink:href="#black"
       id="linearGradient913"
       x1="0"
       y1="0"
       x2="500"
       y2="0"
       gradientUnits="userSpaceOnUse" />
    <linearGradient
       inkscape:collect="always"
       xlink:href="#black"
       id="linearGradient915"
       gradientTransform="scale(0.57124057,1.7505759)"
       x1="35.011519"
       y1="26.277066"
       x2="89.279373"
       y2="26.277066"
       gradientUnits="userSpaceOnUse" />
    <linearGradient
       inkscape:collect="always"
       xlink:href="#black"
       id="linearGradient917"
       gradientTransform="scale(1.741338,0.57427105)"
       x1="26.416468"
       y1="34.82676"
       x2="80.397946"
       y2="34.82676"
       gradientUnits="userSpaceOnUse" />
    <linearGradient
       inkscape:collect="always"
       xlink:href="#black"
       id="linearGradient919"
       gradientTransform="scale(1.8257419,0.54772256)"
       x1="30.124741"
       y1="264.73257"
       x2="79.419771"
       y2="264.73257"
       gradientUnits="userSpaceOnUse" />
    <linearGradient
       inkscape:collect="always"
       xlink:href="#black"
       id="linearGradient921"
       x1="46"
       y1="46"
       x2="145"
       y2="46"
       gradientUnits="userSpaceOnUse" />
    <linearGradient
       inkscape:collect="always"
       xlink:href="#black"
       id="linearGradient923"
       gradientTransform="scale(1.1281521,0.88640526)"
       x1="40.774642"
       y1="51.894999"
       x2="152.4617"
       y2="51.894999"
       gradientUnits="userSpaceOnUse" />
    <linearGradient
       inkscape:collect="always"
       xlink:href="#black"
       id="linearGradient929"
       gradientTransform="scale(0.520524,1.921141)"
       x1="524.21021"
       y1="151.75201"
       x2="554.05706"
       y2="151.75201"
       gradientUnits="userSpaceOnUse" />
    <linearGradient
       inkscape:collect="always"
       xlink:href="#black"
       id="linearGradient931"
       gradientTransform="scale(0.56482255,1.7704676)"
       x1="343.81949"
       y1="165.40828"
       x2="375.59584"
       y2="165.40828"
       gradientUnits="userSpaceOnUse" />
    <linearGradient
       inkscape:collect="always"
       xlink:href="#black"
       id="linearGradient933"
       gradientTransform="scale(0.92621,1.0796688)"
       x1="261.97083"
       y1="298.22388"
       x2="309.79475"
       y2="298.22388"
       gradientUnits="userSpaceOnUse" />
    <linearGradient
       inkscape:collect="always"
       xlink:href="#black"
       id="linearGradient935"
       gradientTransform="scale(0.92464938,1.081491)"
       x1="211.08866"
       y1="246.50216"
       x2="262.10908"
       y2="246.50216"
       gradientUnits="userSpaceOnUse" />
    <linearGradient
       inkscape:collect="always"
       xlink:href="#black"
       id="linearGradient937"
       gradientTransform="scale(0.92115188,1.0855973)"
       x1="214.0114"
       y1="245.69331"
       x2="312.65202"
       y2="245.69331"
       gradientUnits="userSpaceOnUse" />
  </defs>
  <g
     transform="matrix(1.154734,0,0,1.154734,-649.82772,-443.9888)"
     id="flutter-logo">
    <title
       id="title9">Flutter</title>
    <polygon
       class="st1"
       points="702.751,563.654 649.651,563.654 649.551,563.654 602.951,517.054 629.551,490.354 "
       style="opacity:0.72;fill:url(#linearGradient907)"
       id="polygon11" />
    <polygon
       class="st1"
       points="702.751,470.354 649.551,470.354 602.851,516.954 629.551,543.554 "
       style="opacity:0.72;fill:url(#linearGradient909);stroke-width:1.00023036;stroke-miterlimit:4;stroke-dasharray:none"
       id="polygon13" />
    <polygon
       class="st1"
       points="702.651,390.554 649.551,390.554 649.451,390.454 562.751,477.054 589.451,503.754 "
       style="opacity:0.72;fill:url(#linearGradient911)"
       id="polygon15" />
  </g>
  <polygon
     class="st0"
     points="0,500 0,0 500,0 250,250 500,500 "
     style="fill:url(#linearGradient913)"
     id="polygon20"
     transform="matrix(0.4,0,0,0.4,420.78489,6.881684)" />
  <g
     transform="matrix(1.315789,0,0,1.315789,174.51564,-26.315781)"
     id="dart_logo">
    <path
       d="m 25,115 c -3.08,-3.17 -5,-7.63 -5,-12 0,-2.02 1.14,-5.18 2,-7 L 46,46 v 81 c 0,8.02 1.01,9.99 5,14 z"
       style="fill:url(#linearGradient915)"
       id="path23" />
    <path
       d="M 140,51 114,25 c -2.27,-2.28 -7,-5 -11,-5 -3.44,0 -6.81,0.69 -9,2 L 46,46 Z"
       style="opacity:0.5;fill:url(#linearGradient917)"
       id="path25" />
    <path
       d="M 145,172 H 82 L 55,145 h 90 z"
       style="opacity:0.5;fill:url(#linearGradient919)"
       id="path27" />
    <path
       d="m 46,127 c 0,8.02 1.01,9.99 5,14 l 4,4 h 90 L 101,95 46,46 Z"
       style="opacity:0.75;fill:url(#linearGradient921)"
       id="path29" />
    <path
       d="M 126,46 H 46 l 99,99 h 27 V 83 L 140,51 c -4.49,-4.51 -8.49,-5 -14,-5 z"
       style="fill:url(#linearGradient923)"
       id="path31" />
    <polygon
       opacity="0.2"
       fill="#263238"
       points="172,145 172,83 171,82 171,144 144,144 145,145 "
       id="polygon33" />
  </g>
  <path
     d="m 1485.0062,169.2846 c -10.8873,-0.27233 -19.3187,0.81408 -26.3899,3.80909 -2.0402,0.81524 -5.3012,0.81524 -5.5802,3.40016 1.0957,1.0864 1.2265,2.8529 2.1856,4.35607 1.6276,2.72036 4.4787,6.38733 7.0683,8.29681 2.8569,2.17746 5.7139,4.3459 8.7104,6.24986 5.3012,3.27868 11.2883,5.17479 16.45,8.44097 3.0023,1.90164 5.9842,4.34822 8.9865,6.39402 1.491,1.08756 2.4356,2.8587 4.348,3.53182 v -0.41213 c -0.9592,-1.22038 -1.2265,-2.9892 -2.174,-4.35723 -1.3573,-1.34971 -2.7204,-2.58172 -4.0835,-3.93609 -3.9468,-5.30413 -8.8499,-9.92467 -14.1424,-13.73376 -4.3566,-3.00054 -13.8837,-7.08196 -15.6449,-12.0998 0,0 -0.1425,-0.14416 -0.2762,-0.27814 2.9936,-0.27611 6.5365,-1.366 9.3905,-2.19112 4.6182,-1.22067 8.8354,-0.94457 13.596,-2.16524 2.1798,-0.54814 4.3567,-1.23288 6.5423,-1.90164 v -1.23288 c -2.4617,-2.4431 -4.223,-5.71276 -6.8068,-8.02304 -6.9316,-5.98305 -14.558,-11.82776 -22.4458,-16.73226 -4.223,-2.72123 -9.6637,-4.48104 -14.1541,-6.79916 -1.6246,-0.81756 -4.3421,-1.22038 -5.2983,-2.58841 -2.4501,-2.99153 -3.816,-6.93111 -5.5802,-10.4734 -3.9411,-7.47315 -7.7571,-15.76793 -11.1518,-23.67035 -2.4471,-5.301216 -3.9439,-10.602435 -6.9375,-15.502575 -14.0174,-23.128892 -29.2468,-37.131783 -52.643,-50.8731 -5.0339,-2.859868 -11.0181,-4.08345 -17.4063,-5.58023 -3.4063,-0.142413 -6.8038,-0.406892 -10.2043,-0.540585 -2.1797,-0.956196 -4.3595,-3.542865 -6.2603,-4.766447 -7.7571,-4.894327 -27.7442,-15.502578 -33.461,-1.493874 -3.6737,8.84699 5.4407,17.548662 8.5709,22.039003 2.3105,3.124348 5.307,6.667213 6.9317,10.198453 0.9533,2.31347 1.2265,4.766447 2.1826,7.210704 2.174,5.984216 4.2114,12.651428 7.0742,18.231659 1.4909,2.856961 3.1214,5.853429 5.0251,8.425566 1.0986,1.5055 2.9964,2.176871 3.4062,4.632754 -1.8978,2.717456 -2.0461,6.798002 -3.133,10.201362 -4.8944,15.37179 -2.9936,34.41549 3.9468,45.70383 2.1711,3.40016 7.3473,10.88406 14.2848,8.02071 6.1208,-2.44426 4.7607,-10.19816 6.5277,-16.99529 0.4069,-1.64385 0.1337,-2.7224 0.9475,-3.80909 v 0.27494 c 1.9037,3.80328 3.8132,7.46676 5.5802,11.28834 4.223,6.6585 11.5616,13.59745 17.6882,18.218 3.2551,2.45792 5.8418,6.6678 9.9224,8.16865 v -0.41097 h -0.2674 c -0.8196,-1.22067 -2.0403,-1.76881 -3.1302,-2.71687 -2.4472,-2.45007 -5.1617,-5.44392 -7.0741,-8.16283 -5.711,-7.6144 -10.7507,-16.05304 -15.2294,-24.75762 -2.1827,-4.22674 -4.0834,-8.84728 -5.8534,-13.06152 -0.8138,-1.62466 -0.8138,-4.08025 -2.1769,-4.89433 -2.0461,2.9892 -5.0309,5.57762 -6.5248,9.23906 -2.5866,5.85605 -2.8569,13.06384 -3.816,20.54891 -0.5406,0.14212 -0.2674,0 -0.5406,0.27029 -4.348,-1.08756 -5.8447,-5.57558 -7.481,-9.37188 -4.0806,-9.67065 -4.7665,-25.17701 -1.2236,-36.33166 0.9475,-2.85115 5.0396,-11.828924 3.4004,-14.549286 -0.8225,-2.595388 -3.5399,-4.077637 -5.0338,-6.126628 -1.7642,-2.583763 -3.6794,-5.841804 -4.8914,-8.704578 -3.2668,-7.614689 -4.9089,-16.051882 -8.4343,-23.666571 -1.6334,-3.542865 -4.4961,-7.216517 -6.8009,-10.474557 -2.5896,-3.673652 -5.4436,-6.257415 -7.4868,-10.605345 -0.6743,-1.499687 -1.6276,-3.949756 -0.5435,-5.577324 0.2674,-1.089888 0.8196,-1.499687 1.9095,-1.772885 1.7583,-1.496781 6.798,0.403985 8.5622,1.220675 5.0367,2.034459 9.2538,3.949757 13.4652,6.800906 1.9065,1.363087 3.9468,3.94685 6.3911,4.632754 h 2.8627 c 4.3509,0.94457 9.251,0.264479 13.3345,1.493874 7.2049,2.310564 13.7326,5.711017 19.586,9.384669 17.8131,11.291247 32.5048,27.346035 42.4301,46.522264 1.6363,3.124348 2.3222,5.984212 3.8161,9.242252 2.8569,6.67884 6.3969,13.47975 9.248,20.00251 2.8541,6.39402 5.5803,12.91766 9.6666,18.23079 2.0345,2.85173 10.1985,4.34822 13.8721,5.84558 2.7146,1.22039 6.9375,2.31028 9.3876,3.80444 4.624,2.85173 9.2393,6.1214 13.5989,9.25505 2.1711,1.63251 8.9749,5.02918 9.3847,7.7539"
     id="path28" />
  <path
     d="m 1198.1916,32.95692 c -8.414,-9.928 -15.663,-20.082 -17.135,-22.166 -0.132,-0.19 -0.413,-0.19 -0.545,0 -1.472,2.084 -8.719,12.238 -17.133,22.166 -72.112,91.868 11.382,153.85 11.382,153.85 l 0.677,0.47 c 0.633,9.59 2.206,23.371 2.206,23.371 h 6.283 c 0,0 1.566,-13.722 2.202,-23.309 l 0.681,-0.532 c 0,0 83.493,-61.982 11.382,-153.85 z m -17.406,152.503 h -10e-4 c 0,0 -3.743,-3.193 -4.753,-4.793 l -0.01,-0.172 4.527,-100.017 c 0.01,-0.181 0.21,-0.286 0.362,-0.188 0.065,0.041 0.105,0.111 0.109,0.188 l 4.527,100.017 -0.01,0.172 c -1.009,1.599 -4.753,4.793 -4.753,4.793 z"
     id="path44" />
  <g
     transform="matrix(1.436492,0,0,-1.436492,0.20926177,1901.2913)"
     id="nodejs"
     bx:origin="0 1">
    <g
       transform="matrix(1.298427,0,0,1.298427,355.38699,835.49365)"
       id="g54">
      <path
         d="m 285.861,348.877 h -0.212 c 0.517,-0.298 0.94,-0.686 1.286,-1.128 L 272.864,321.983 288,296.124 v -0.19 c 0,-1.814 -0.768,-3.489 -2.337,-4.397 h 0.199 c 1.571,0.908 2.538,2.583 2.538,4.397 v 48.546 c 0,1.815 -0.967,3.491 -2.539,4.397 z"
         style="opacity:0.8;fill:url(#linearGradient929);stroke:none"
         id="path70" />
      <path
         d="m 196.736,348.877 c -1.572,-0.906 -2.539,-2.582 -2.539,-4.395 v -48.548 c 0,-1.133 0.378,-2.213 1.044,-3.084 l 16.904,28.918 -15.008,27.341 z"
         style="opacity:0.7;fill:url(#linearGradient931);stroke:none"
         id="path48" />
      <path
         d="m 285.649,348.877 -41.843,24.255 c -0.37,0.214 -0.762,0.373 -1.166,0.485 l 30.224,-51.634 14.071,25.766 c -0.346,0.442 -0.769,0.83 -1.286,1.128 z"
         style="opacity:0.59;fill:url(#linearGradient933);fill-opacity:1;fill-rule:nonzero;stroke:none"
         id="path88" />
      <path
         d="m 195.183,292.751 c 0.398,-0.479 0.878,-0.896 1.428,-1.214 l 42.093,-24.274 c 1.134,-0.654 2.43,-0.828 3.655,-0.537 l -30.214,55.042 z"
         style="fill:url(#linearGradient935);fill-opacity:1;fill-rule:nonzero;stroke:none"
         id="path51" />
      <path
         d="m 240.99,373.802 c -0.771,-0.048 -1.533,-0.272 -2.224,-0.671 l -41.629,-24.022 45.223,-82.385 c 0.473,0.112 0.935,0.286 1.373,0.539 l 41.93,24.274 c 1.569,0.908 2.337,2.583 2.337,4.397 v 0.19 l -45.36,77.493 c -0.455,0.127 -0.924,0.191 -1.392,0.191 -0.086,0 -0.172,-0.002 -0.258,-0.006"
         style="opacity:0.76;fill:url(#linearGradient937);stroke:none"
         id="path-1"
         transform="translate(6e-6)" />
    </g>
  </g>
  <path
     d="m 840.78455,69.442935 v 74.876805 c 0,2.38757 0,4.77515 -0.0135,7.16608 -0.0135,2.01378 -0.037,4.02082 -0.0909,6.03123 -0.11786,4.38451 -0.37716,8.80607 -1.15506,13.1367 -0.79137,4.40135 -2.08113,8.49625 -4.11511,12.4935 -2.00031,3.92653 -4.61013,7.51967 -7.72846,10.63126 -3.11495,3.11832 -6.70473,5.73152 -10.63463,7.72846 -3.99387,2.03398 -8.08541,3.32374 -12.48339,4.11511 -4.33737,0.77789 -8.75555,1.03719 -13.14006,1.15506 -2.01378,0.0539 -4.02419,0.0774 -6.0346,0.0909 -2.38757,0.0168 -4.77851,0.0135 -7.16608,0.0135 h -74.87681 c -2.39094,0 -4.77514,0.003 -7.16272,-0.0135 -2.01377,-0.0135 -4.02755,-0.037 -6.03796,-0.0909 -4.38114,-0.11787 -8.80606,-0.37717 -13.14006,-1.15506 -4.39798,-0.79137 -8.48952,-2.08113 -12.4834,-4.11511 -3.92989,-2.00031 -7.52304,-4.61014 -10.63799,-7.72846 -3.11496,-3.11159 -5.72816,-6.70473 -7.7251,-10.63126 -2.03398,-3.99725 -3.32374,-8.09215 -4.1151,-12.4935 -0.7779,-4.33063 -1.0372,-8.75219 -1.15506,-13.1367 -0.0539,-2.01041 -0.0775,-4.02082 -0.0909,-6.03123 -0.0168,-2.39093 -0.0135,-4.77851 -0.0135,-7.16608 V 69.442935 c 0,-2.387572 -0.003,-4.778511 0.0135,-7.166083 0.0135,-2.010409 0.0371,-4.020818 0.0909,-6.034595 0.11786,-4.381144 0.37716,-8.802698 1.15506,-13.136696 0.79136,-4.397981 2.08112,-8.492885 4.1151,-12.490132 1.99694,-3.926528 4.61014,-7.519672 7.7251,-10.634628 0.78126,-0.777897 1.58947,-1.525486 2.42461,-2.239401 2.5088,-2.141742 5.2668,-3.987143 8.21338,-5.48569 0.99679,-0.508495 2.00368,-0.969845 3.0173,-1.390785 3.04087,-1.2560854 6.1693,-2.1316406 9.4661,-2.7243241 3.24965,-0.5859485 6.55319,-0.8755552 9.84663,-1.0338287 1.10118,-0.05388 2.19899,-0.090923 3.29343,-0.1212307 2.01041,-0.05388 4.02419,-0.077453 6.0346,-0.090923 2.38757,-0.01347 4.77514,-0.01347 7.16608,-0.01347 h 74.87681 c 2.38757,0 4.77851,0 7.16608,0.01347 2.01041,0.01347 4.02082,0.033675 6.0346,0.090923 4.38451,0.1178632 8.80269,0.3737947 13.14006,1.1550594 4.39798,0.7913672 8.48952,2.0811271 12.48339,4.1151091 3.9299,1.99694 7.52304,4.610135 10.638,7.725091 3.11496,3.114956 5.72478,6.7081 7.72509,10.634628 2.03398,3.997247 3.32711,8.092151 4.11511,12.490132 0.7779,4.333998 1.0372,8.755552 1.15506,13.136696 0.0572,2.013777 0.0774,4.024186 0.0909,6.034595 0.0135,2.387572 0.0135,4.778511 0.0135,7.166083 z M 799.26303,130.3378 c -0.007,-0.007 -0.0101,-0.0101 -0.0168,-0.0168 0.22226,-0.75432 0.45125,-1.50191 0.6432,-2.27307 8.30094,-33.072418 -11.95806,-72.172693 -46.23942,-92.76171 15.02251,20.366761 21.66663,45.037212 15.76336,66.60955 -0.52533,1.92285 -1.15842,3.77162 -1.85887,5.56651 -0.75769,-0.4984 -1.71406,-1.06414 -3.00046,-1.77469 0,0 -34.0995,-21.053732 -71.0614,-58.298504 -0.96985,-0.97658 19.70672,29.556724 43.17834,54.351774 -11.05894,-6.20634 -41.87175,-28.623921 -61.37979,-46.478512 2.39767,3.997246 5.2466,7.842954 8.38176,11.550594 16.28869,20.659735 37.53438,46.148498 62.98609,65.723888 -17.88153,10.94444 -43.1514,11.79305 -68.31014,0.0101 -6.22318,-2.91627 -12.07256,-6.43533 -17.48753,-10.43257 10.6481,17.03291 27.05129,31.73214 47.01394,40.31258 23.805,10.23052 47.47867,9.53681 65.111,0.16837 l -0.0135,0.0202 c 0.0808,-0.0539 0.18522,-0.10776 0.26604,-0.15828 0.72401,-0.39063 1.44466,-0.78799 2.14511,-1.20557 8.47268,-4.39798 25.20588,-8.85994 34.18706,8.61749 2.20236,4.27675 6.87648,-18.38666 -10.30798,-39.53132 z"
     id="path57" />
  <path
     d="m 1101.8847,376.30004 -14.2,-123.1 93.1,-33.2 93.1,33.2 -14.2,123.1 -78.9,43.7 z m 78.9,-134.2 -58.2,130.5 h 21.7 l 11.7,-29.2 h 49.4 l 11.7,29.2 h 21.7 z m 17,83.3 h -34 l 17,-40.9 z"
     id="angular" />
  <path
     id="css"
     d="m 263.33121,220.00004 h 21.48437 v 8.98438 h -12.5 v 8.98437 h 12.5 v 8.98438 h -21.48437 z m 25.78125,0 h 21.48437 v 7.8125 h -12.5 v 1.5625 h 12.5 v 17.96875 h -21.48437 v -8.20312 h 12.5 v -1.5625 h -12.5 z m 25.78125,0 h 21.48437 v 7.8125 h -12.5 v 1.5625 h 12.5 v 17.96875 h -21.48437 v -8.20312 h 12.5 v -1.5625 h -12.5 z m 56.78398,39.30469 -12.90859,144.60898 -58.02461,16.08633 -57.86484,-16.06367 -12.89492,-144.63164 z m -49.06484,83.20586 -2.05898,23.00547 -19.78399,5.33984 v 0.002 l -0.0164,0.004 -19.75547,-5.33438 -1.26289,-14.14726 h -17.80664 l 2.48515,27.85195 36.33594,10.08711 0.0816,-0.0227 v -0.003 l 36.30352,-10.06133 0.26679,-2.99687 4.16836,-46.69961 0.43281,-4.76328 3.20235,-35.90313 h -88.85352 l 1.6125,17.73867 h 67.80117 l -1.61406,18.16446 h -64.60508 l 1.58985,17.73828 z" />
  <path
     d="m 1392.1195,248.45518 c -1.4431,0.58805 -1.0058,2.80219 -1.0058,4.03942 v 10.1695 c 0,1.11969 -0.3665,3.04611 0.4854,3.92465 0.9182,0.94722 3.4805,0.4622 4.6991,0.4622 h 10.1695 c 1.279,0 3.1781,0.35162 4.3781,-0.12032 1.4436,-0.56776 1.0057,-2.84756 1.0057,-4.06712 v -9.9701 c 0,-1.10798 0.359,-3.00785 -0.3473,-3.9425 -0.8557,-1.1322 -3.3887,-0.64375 -4.6377,-0.64375 h -10.1695 c -1.3418,0 -3.3215,-0.36385 -4.5775,0.14802 m -49.2393,22.73176 c -1.2822,0.55155 -0.8194,2.92324 -0.8194,4.03949 v 9.9701 c 0,1.07757 -0.3742,3.04347 0.3197,3.94258 0.8524,1.10389 3.2395,0.64367 4.466,0.64367 h 10.5683 c 1.2441,0 3.2558,0.37786 4.3751,-0.2351 1.2381,-0.67797 0.8093,-2.77488 0.8093,-3.95235 v -10.1695 c 0,-1.04825 0.3783,-3.04866 -0.3473,-3.9015 -0.8299,-0.97567 -3.4792,-0.48534 -4.6377,-0.48534 h -10.1695 c -1.3173,0 -3.3404,-0.37847 -4.5645,0.14795 m 24.7258,0 c -1.3519,0.58046 -1.0187,2.8688 -1.0187,4.03949 v 9.9701 c 0,1.18265 -0.3013,2.95813 0.5113,3.94258 0.9032,1.09412 3.2109,0.64367 4.4737,0.64367 h 10.5683 c 1.2441,0 3.2559,0.37786 4.3751,-0.2351 1.2381,-0.67797 0.8094,-2.77488 0.8094,-3.95235 v -10.1695 c 0,-1.04825 0.3783,-3.04866 -0.3474,-3.9015 -0.8299,-0.97567 -3.4791,-0.48534 -4.6377,-0.48534 h -10.1695 c -1.3178,0 -3.3395,-0.37787 -4.5645,0.14795 m 24.3271,0.057 c -1.2285,0.69153 -0.8194,2.81157 -0.8194,3.98246 v 9.9701 c 0,1.09272 -0.3645,3.01895 0.3474,3.93241 0.878,1.12682 3.3826,0.65384 4.6377,0.65384 h 10.5683 c 1.2626,0 3.2245,0.36231 4.3651,-0.26282 1.2325,-0.67517 0.8193,-2.75533 0.8193,-3.92463 v -10.1695 c 0,-1.11964 0.3665,-3.04606 -0.4853,-3.92463 -0.8951,-0.92323 -3.3153,-0.46221 -4.4997,-0.46221 h -10.5683 c -1.203,0 -3.2931,-0.39861 -4.3651,0.20498 m 64.7839,4.78007 c -1.3956,2.50668 -3.1207,4.74716 -4.3252,7.37787 -2.9851,6.51905 -4.3255,14.3051 -2.5283,21.33602 0.6479,2.53499 1.5352,5.90668 3.4637,7.77667 v 0.19941 c -11.6643,5.54776 -25.9239,3.58923 -38.4846,3.58923 h -73.9782 -26.321 c -3.2692,0 -8.0938,-0.90468 -10.9671,0.90908 -2.6714,1.68654 -2.7917,4.22931 -2.7917,7.067 0,4.42035 0.2652,8.78346 0.9131,13.16053 2.8042,18.94579 10.9807,39.19546 29.5954,47.4854 10.5019,4.67697 22.1231,6.26162 33.4996,6.75972 28.7821,1.26042 59.9707,-6.30628 80.5506,-27.72485 6.9853,-7.27 12.8792,-15.56512 17.5033,-24.52625 1.7528,-3.39362 3.3619,-6.86022 4.8674,-10.3689 0.6281,-1.46441 1.0887,-3.71346 2.1276,-4.92164 0.6939,-0.80678 2.2812,-0.41535 3.2264,-0.47996 2.8335,-0.19402 5.6151,-0.55414 8.3748,-1.25324 8.9352,-2.26341 17.2124,-9.26741 19.342,-18.46981 -8.0438,-5.96132 -17.1186,-6.19841 -26.7198,-4.98505 -0.5763,-7.24627 -5.1984,-14.13501 -10.5683,-18.74359 -1.8565,-1.59342 -4.349,-3.63131 -6.7797,-4.18764 m -137.9824,17.69533 c -1.5041,0.59761 -1.2002,2.54517 -1.2002,3.84008 v 10.16951 c 0,1.1986 -0.3434,3.1324 0.539,4.1009 0.8825,0.96889 3.449,0.48534 4.6454,0.48534 h 10.1695 c 1.3173,0 3.3406,0.37847 4.5646,-0.14795 1.2821,-0.55155 0.8193,-2.92324 0.8193,-4.03949 v -9.9701 c 0,-1.07757 0.3743,-3.04347 -0.3196,-3.94258 -0.8728,-1.13041 -3.4066,-0.64367 -4.6654,-0.64367 h -9.9701 c -1.3528,0 -3.3121,-0.35673 -4.5825,0.14796 m 24.327,0 c -1.4594,0.58285 -1.0008,2.78864 -1.0008,4.03949 v 10.1695 c 0,1.04825 -0.3782,3.04866 0.3474,3.9015 0.8299,0.97567 3.4792,0.48534 4.6377,0.48534 h 10.1695 c 1.3172,0 3.3406,0.37847 4.5645,-0.14795 1.2822,-0.55155 0.8193,-2.92324 0.8193,-4.03949 v -9.9701 c 0,-1.07757 0.3743,-3.04347 -0.3196,-3.94258 -0.8728,-1.13041 -3.4066,-0.64367 -4.6654,-0.64367 h -9.9701 c -1.3508,0 -3.3147,-0.35812 -4.5825,0.14796 m 24.7259,0 c -1.5203,0.60618 -1.2002,2.7338 -1.2002,4.03949 v 10.1695 c 0,1.14935 -0.2872,2.96192 0.544,3.9015 0.8594,0.97188 3.4604,0.48534 4.6404,0.48534 h 10.1695 c 1.3173,0 3.3406,0.37847 4.5646,-0.14795 1.2821,-0.55155 0.8193,-2.92324 0.8193,-4.03949 v -9.9701 c 0,-1.07757 0.3743,-3.04347 -0.3196,-3.94258 -0.8728,-1.13041 -3.4066,-0.64367 -4.6655,-0.64367 h -9.9701 c -1.3513,0 -3.3136,-0.35772 -4.5824,0.14796 m 24.332,0 c -1.4431,0.58804 -1.0058,2.8022 -1.0058,4.03949 v 10.1695 c 0,1.11964 -0.3665,3.04606 0.4854,3.92463 0.9182,0.94716 3.4805,0.46221 4.6991,0.46221 h 10.1695 c 1.279,0 3.1781,0.35155 4.3781,-0.12024 1.4436,-0.56789 1.0057,-2.84766 1.0057,-4.0672 v -9.9701 c 0,-1.10808 0.359,-3.00778 -0.3473,-3.94258 -0.8557,-1.1322 -3.3887,-0.64367 -4.6377,-0.64367 h -10.1695 c -1.3418,0 -3.3215,-0.3639 -4.5775,0.14796 m 24.7209,0 c -1.4594,0.58285 -1.0008,2.78864 -1.0008,4.03949 v 10.1695 c 0,1.04845 -0.3783,3.04866 0.3473,3.9015 0.8299,0.97567 3.4792,0.48534 4.6377,0.48534 h 10.1695 c 1.3195,0 3.3376,0.37687 4.5647,-0.14795 1.3849,-0.59243 1.0186,-2.84547 1.0186,-4.03949 v -9.9701 c 0,-1.18285 0.3013,-2.95813 -0.5113,-3.94258 -0.9254,-1.12103 -3.3769,-0.64367 -4.6732,-0.64367 h -9.9701 c -1.3507,0 -3.3146,-0.35812 -4.5824,0.14796"
     id="docker" />
  <path
     d="M 22.879645,403.93637 9.9847226,259.30473 H 151.67769 L 138.7691,403.91371 80.744488,420.00004 Z m 79.733205,-61.42578 -2.05899,23.00547 -19.783981,5.33984 v 0.002 l -0.01641,0.004 L 60.998,365.52752 59.735109,351.38026 h -17.80664 l 2.485156,27.85195 36.335937,10.08711 0.08164,-0.0227 v -0.003 l 36.303518,-10.06133 0.2668,-2.99687 4.16835,-46.69961 0.43282,-4.76328 H 57.358551 l -1.621094,-18.16446 h 67.879293 l 0.35586,-3.98711 0.80821,-8.99257 0.42422,-4.75899 H 36.35152 l 0.424609,4.75899 4.359765,48.88242 z M 32.182379,220.00004 v 8.90625 h 8.246094 v -8.90625 h 9.014843 v 26.97031 h -9.014453 v -9.03125 h -8.246094 v 9.03125 h -9.014453 v -26.97031 z m 21.179297,8.94375 v -8.94375 h 24.890625 v 8.94375 h -7.939453 v 18.02656 h -9.014844 v -18.02656 z m 28.841015,-8.94375 h 9.39961 l 5.782031,9.47656 5.776168,-9.47656 h 9.40313 v 26.97031 h -8.97734 v -13.36797 l -6.201958,9.58946 h -0.155078 l -6.20625,-9.58946 v 13.36797 h -8.820313 z m 34.847269,0 h 9.01718 v 18.05547 h 12.67696 v 8.91484 h -21.69414 z"
     id="html" />
  <path
     d="m 882.84769,261.14063 c -0.37734,-10.83594 8.06524,-20.82813 19.47696,-20.82813 h 116.93475 c 11.4117,0 19.8543,9.99219 19.477,20.82813 -0.3625,10.40898 0.1082,23.89258 3.5015,34.88672 3.4043,11.02812 9.145,17.99882 18.5469,18.89453 v 10.15625 c -9.4019,0.8957 -15.1426,7.8664 -18.5469,18.89453 -3.3933,10.99414 -3.864,24.47773 -3.5015,34.88711 0.3773,10.83555 -8.0653,20.82773 -19.477,20.82773 H 902.32465 c -11.41172,0 -19.8543,-9.99218 -19.47657,-20.82773 0.36211,-10.40938 -0.10859,-23.89297 -3.50234,-34.88711 -3.40391,-11.02813 -9.15859,-17.99883 -18.56094,-18.89453 v -10.15625 c 9.40196,-0.89571 15.15703,-7.86641 18.56094,-18.89453 3.39375,-10.99414 3.86445,-24.47774 3.50195,-34.88672 z m 82.27422,101.22539 c 18.47539,0 29.6086,-9.0461 29.6086,-23.9668 0,-11.27851 -7.94375,-19.44375 -19.73907,-20.73633 v -0.46992 c 8.66602,-1.40976 15.46641,-9.45742 15.46641,-18.44492 0,-12.80586 -10.11016,-21.14766 -25.51641,-21.14766 h -34.66406 v 84.76563 z m -21.36406,-74.01563 h 17.93398 c 9.74922,0 15.28555,4.34688 15.28555,12.21836 0,8.40039 -6.43906,13.09961 -18.11406,13.09961 h -15.10547 z m 0,63.26602 v -27.90274 h 17.81328 c 12.7582,0 19.37813,4.69922 19.37813,13.86329 0,9.16367 -6.43907,14.03945 -18.59571,14.03945 z"
     id="bootstrap" />
  <path
     d="M 420.78474,220.00004 H 620.78473 V 420.00003 H 420.78474 Z m 119.26549,165.38632 c 5.52624,10.91892 16.82035,19.2496 34.30207,19.2496 17.87917,0 31.19236,-9.28458 31.19236,-26.23211 0,-15.72019 -9.0302,-22.71224 -25.02384,-29.57075 l -4.70588,-2.0159 c -8.07631,-3.49761 -11.57393,-5.78378 -11.57393,-11.43084 0,-4.56916 3.49444,-8.06677 9.00795,-8.06677 5.4054,0 8.88712,2.27981 12.11447,8.06677 l 14.65818,-9.41176 c -6.20031,-10.9062 -14.80445,-15.07154 -26.77265,-15.07154 -16.81081,0 -27.56757,10.74721 -27.56757,24.86486 0,15.32591 9.02385,22.57551 22.60732,28.36248 l 4.70588,2.01907 c 8.58505,3.75517 13.70429,6.04134 13.70429,12.49603 0,5.38633 -4.98251,9.28458 -12.78219,9.28458 -9.28458,0 -14.53418,-4.84261 -18.56916,-11.43084 z m -66.52145,2.02066 c 4.43879,9.39428 13.16693,17.19396 28.23847,17.19396 16.68044,0 28.1081,-8.87122 28.1081,-28.36248 v -64.26072 h -18.82352 v 64.00635 c 0,9.40859 -3.90143,11.8283 -10.08585,11.8283 -6.46741,0 -9.1574,-4.43561 -12.11447,-9.68203 z"
     id="javascript" />
  <path
     d="m 660.31597,220 h 160.9375 c 10.78672,0 19.53125,8.74453 19.53125,19.53125 v 160.9375 c 0,10.78672 -8.74453,19.53125 -19.53125,19.53125 h -160.9375 c -10.78672,0 -19.53125,-8.74453 -19.53125,-19.53125 V 239.53125 C 640.78472,228.74453 649.52925,220 660.31597,220 Z m 103.55469,159.15625 c 0.24531,0.20469 0.49297,0.40586 0.74219,0.60352 v -0.77539 z m 0.74219,19.35938 c 3.16406,1.64062 7.03125,2.85156 11.32812,3.67187 4.29688,0.82031 8.98438,1.21094 13.67188,1.21094 4.6875,0 8.98437,-0.42969 13.28125,-1.32813 4.29687,-0.89843 7.8125,-2.38281 10.9375,-4.29687 3.16406,-2.07031 5.85937,-4.6875 7.42187,-8.20313 1.5625,-3.51562 2.77344,-7.42187 2.77344,-12.5 0,-3.55468 -0.54688,-6.64062 -1.60156,-9.375 -1.05469,-2.73437 -2.57813,-5.07812 -4.6875,-7.03125 -1.99219,-2.07031 -4.29688,-3.90625 -7.03125,-5.46875 -2.73438,-1.5625 -5.85938,-3.20312 -9.375,-4.6875 -2.57813,-1.05468 -4.6875,-2.07031 -7.03125,-3.08593 -2.03125,-1.01563 -3.78907,-2.03125 -5.07813,-3.04688 -1.44531,-1.05469 -2.53906,-2.14844 -3.32031,-3.28125 -0.78125,-1.17187 -1.17188,-2.46094 -1.17188,-3.90625 0,-1.32812 0.34766,-2.53906 1.05469,-3.63281 0.70703,-1.09375 1.67969,-1.99219 2.92969,-2.77344 1.25,-0.78125 2.8125,-1.36719 4.6875,-1.79687 1.83594,-0.42969 3.86719,-0.625 6.25,-0.625 1.64062,0 3.35937,0.12109 5.07812,0.36718 1.79688,0.2461 3.63282,0.625 5.46875,1.13282 1.83594,0.50781 3.63282,1.13281 5.46875,1.91406 1.71875,0.78125 3.32032,1.67969 4.6875,2.69531 v -18.35937 c -2.96875,-1.13282 -6.25,-1.99219 -9.76562,-2.53907 -3.51563,-0.54687 -7.42188,-0.82031 -12.10938,-0.82031 -4.6875,0 -8.98437,0.50781 -13.28125,1.48438 -4.29687,0.97656 -7.8125,2.53906 -10.9375,4.6875 -3.16406,2.10937 -5.46875,4.6875 -7.42187,8.20312 -1.83594,3.28125 -2.73438,7.03125 -2.73438,11.71875 0,5.85938 1.67969,10.9375 5.07813,14.84375 3.35937,4.29688 8.59375,7.42188 15.23437,10.54688 2.69532,1.09375 5.07813,2.1875 7.42188,3.24218 2.34375,1.05469 4.29687,2.14844 5.85937,3.28125 1.67969,1.13282 3.00782,2.38282 3.90625,3.71094 0.97657,1.32813 1.48438,2.89063 1.48438,4.6875 0,1.25 -0.30469,2.42188 -0.89844,3.51563 -0.59375,1.09375 -1.52344,2.03125 -2.77344,2.8125 -1.25,0.78125 -2.77343,1.40625 -4.6875,1.875 -1.83593,0.42968 -3.90625,0.66406 -6.64062,0.66406 -4.29688,0 -8.59375,-0.74219 -12.5,-2.22656 -3.99688,-1.38086 -7.65586,-3.40352 -10.97656,-6.03711 z m -32.8125,-67.57813 h 25 v -16.01562 h -69.92188 v 16.01562 h 25 v 71.48438 h 19.92188 z"
     id="typescript" />
</svg>
