<svg xmlns="http://www.w3.org/2000/svg" xmlns:bx="https://boxy-svg.com" xmlns:xlink="http://www.w3.org/1999/xlink" viewBox="0 0 1501 420">
  <defs>
    <linearGradient id="a">
      <title>Black</title>
      <stop style="stop-color:rgb(0, 0, 0)"/>
    </linearGradient>
    <linearGradient xlink:href="#a" id="b" x1="516.7" x2="602.3" y1="572.2" y2="572.2" gradientTransform="scale(1.16685 .85701)" gradientUnits="userSpaceOnUse"/>
    <linearGradient xlink:href="#a" id="c" x1="516" x2="601.6" y1="549.5" y2="549.5" gradientTransform="scale(1.16823 .856)" gradientUnits="userSpaceOnUse"/>
    <linearGradient xlink:href="#a" id="d" x1="506.4" x2="632.3" y1="433.9" y2="433.9" gradientTransform="scale(1.1112 .89992)" gradientUnits="userSpaceOnUse"/>
    <linearGradient xlink:href="#a" id="e" x1="0" x2="500" y1="0" y2="0" gradientUnits="userSpaceOnUse"/>
    <linearGradient xlink:href="#a" id="f" x1="35" x2="89.3" y1="26.3" y2="26.3" gradientTransform="scale(.57124 1.75058)" gradientUnits="userSpaceOnUse"/>
    <linearGradient xlink:href="#a" id="g" x1="26.4" x2="80.4" y1="34.8" y2="34.8" gradientTransform="scale(1.74134 .57427)" gradientUnits="userSpaceOnUse"/>
    <linearGradient xlink:href="#a" id="h" x1="30.1" x2="79.4" y1="264.7" y2="264.7" gradientTransform="scale(1.82574 .54772)" gradientUnits="userSpaceOnUse"/>
    <linearGradient xlink:href="#a" id="i" x1="46" x2="145" y1="46" y2="46" gradientUnits="userSpaceOnUse"/>
    <linearGradient xlink:href="#a" id="j" x1="40.8" x2="152.5" y1="51.9" y2="51.9" gradientTransform="scale(1.12815 .8864)" gradientUnits="userSpaceOnUse"/>
    <linearGradient xlink:href="#a" id="k" x1="524.2" x2="554.1" y1="151.8" y2="151.8" gradientTransform="scale(.52052 1.92114)" gradientUnits="userSpaceOnUse"/>
    <linearGradient xlink:href="#a" id="l" x1="343.8" x2="375.6" y1="165.4" y2="165.4" gradientTransform="scale(.56482 1.77047)" gradientUnits="userSpaceOnUse"/>
    <linearGradient xlink:href="#a" id="m" x1="262" x2="309.8" y1="298.2" y2="298.2" gradientTransform="scale(.92621 1.07967)" gradientUnits="userSpaceOnUse"/>
    <linearGradient xlink:href="#a" id="n" x1="211.1" x2="262.1" y1="246.5" y2="246.5" gradientTransform="scale(.92465 1.0815)" gradientUnits="userSpaceOnUse"/>
    <linearGradient xlink:href="#a" id="o" x1="214" x2="312.7" y1="245.7" y2="245.7" gradientTransform="scale(.92115 1.0856)" gradientUnits="userSpaceOnUse"/>
  </defs>
  <g transform="translate(-650 -444) scale(1.15473)">
    <title>Flutter</title>
    <path d="M703 564h-53l-47-47 27-27z" class="st1" style="opacity:0.72;fill:url(#b)"/>
    <path d="M703 470h-53l-47 47 27 27z" class="st1" style="opacity:0.72;fill:url(#c);stroke-width:1.00023036;stroke-miterlimit:4;stroke-dasharray:none"/>
    <path d="M703 391h-53l-1-1-86 87 26 27z" class="st1" style="opacity:0.72;fill:url(#d)"/>
  </g>
  <path d="M0 500V0h500L250 250l250 250z" class="st0" style="fill:url(#e)" transform="matrix(.4 0 0 .4 421 7)"/>
  <path d="M25 115c-3-3-5-8-5-12l2-7 24-50v81c0 8 1 10 5 14z" style="fill:url(#f)" transform="translate(175 -26) scale(1.31579)"/>
  <path d="m140 51-26-26c-2-2-7-5-11-5l-9 2-48 24Z" style="opacity:0.5;fill:url(#g)" transform="translate(175 -26) scale(1.31579)"/>
  <path d="M145 172H82l-27-27h90z" style="opacity:0.5;fill:url(#h)" transform="translate(175 -26) scale(1.31579)"/>
  <path d="M46 127c0 8 1 10 5 14l4 4h90l-44-50-55-49Z" style="opacity:0.75;fill:url(#i)" transform="translate(175 -26) scale(1.31579)"/>
  <path d="M126 46H46l99 99h27V83l-32-32c-4-5-8-5-14-5z" style="fill:url(#j)" transform="translate(175 -26) scale(1.31579)"/>
  <path fill="#263238" d="M401 164V83l-1-1v81h-36l1 1z" opacity=".2"/>
  <path d="M1485 169c-11 0-19 1-26 4-2 1-6 1-6 3l2 5 7 8 9 6c5 4 11 6 16 9l9 6 5 4v-1l-2-4-4-4c-4-5-9-10-15-14-4-3-13-7-15-12h-1l10-2 13-2 7-2v-2l-7-8-22-16-14-7c-2-1-5-1-6-3l-5-10-11-24-7-15c-14-23-30-37-53-51-5-3-11-4-17-6h-11l-6-5c-8-5-28-16-33-2-4 9 5 18 8 22s6 7 7 11l2 7 7 18 5 9 4 4c-2 3-2 7-3 10-5 16-3 35 4 46 2 3 7 11 14 8 6-2 5-10 6-17l1-4v1l6 11c4 6 12 13 18 18 3 3 6 7 10 8h-1l-3-3-7-8c-6-8-11-16-15-25l-6-13-2-5-7 9c-2 6-3 14-3 21h-1c-4-1-6-5-7-9-5-10-5-25-2-36 1-3 5-12 4-15s-4-4-5-6l-5-9c-4-7-5-16-9-23-1-4-4-8-6-11-3-4-6-6-8-11-1-1-2-4-1-5l2-2c2-1 7 0 9 1l13 7 7 5h3l13 1 20 10c17 11 32 27 42 46l4 9 9 20 10 19c2 2 10 4 14 5 2 2 7 3 9 4l14 10c2 1 9 5 9 7M1198 33a347 347 0 0 1-17-22l-18 22c-72 92 12 154 12 154l3 24h6l2-24h1s83-62 11-154zm-17 152-5-4v-1l5-100 5 100v1l-5 4z"/>
  <g bx:origin="0 1">
    <path d="m286 349 1-1-14-26 15-26-2-4 2 4v48l-2 5z" style="opacity:0.8;fill:url(#k);stroke:none" transform="matrix(1.86518 0 0 -1.86518 511 701)"/>
    <path d="M197 349c-2-1-3-3-3-5v-48l1-3 17 29-15 27z" style="opacity:0.7;fill:url(#l);stroke:none" transform="matrix(1.86518 0 0 -1.86518 511 701)"/>
    <path d="m286 349-42 24-1 1 30-52 14 26-1 1z" style="opacity:0.59;fill:url(#m);fill-opacity:1;fill-rule:nonzero;stroke:none" transform="matrix(1.86518 0 0 -1.86518 511 701)"/>
    <path d="m195 293 2-1 42-25h3l-30 55z" style="fill:url(#n);fill-opacity:1;fill-rule:nonzero;stroke:none" transform="matrix(1.86518 0 0 -1.86518 511 701)"/>
    <path d="m241 374-2-1-42-24 45-82h2l42 25 2 4-45 78a5 5 0 0 1-2 0" style="opacity:0.76;fill:url(#o);stroke:none" transform="matrix(1.86518 0 0 -1.86518 511 701)"/>
  </g>
  <path d="M841 69v82a300 300 0 0 1-1 20 44 44 0 0 1-12 23 42 42 0 0 1-23 12 88 88 0 0 1-20 1h-89a301 301 0 0 1-19-1 44 44 0 0 1-23-12 42 42 0 0 1-12-23 88 88 0 0 1-1-20V62a302 302 0 0 1 1-19 44 44 0 0 1 12-23 43 43 0 0 1 23-12 76 76 0 0 1 13-1h95a278 278 0 0 1 20 1 44 44 0 0 1 23 12 42 42 0 0 1 12 23 88 88 0 0 1 1 19v7zm-42 61 1-2c8-33-12-72-46-93 15 21 21 45 15 67l-1 5-3-1s-35-21-72-59c0-1 20 30 44 55-11-6-42-29-62-47l9 12c16 20 37 46 63 66a79 79 0 0 1-69 0l-17-11c11 17 27 32 47 40 24 11 47 10 65 1v-1l2-1c9-4 26-9 35 9 2 4 6-19-11-40zm303 246-14-123 93-33 93 33-14 123-79 44zm79-134-58 131h21l12-30h49l12 30h22zm17 83h-34l17-40zM263 220h22v9h-13v9h13v9h-22zm26 0h22v8h-13v1h13v18h-22v-8h13v-1h-13zm26 0h21v8h-12v1h12v18h-21v-8h12v-1h-12zm57 39-13 145-58 16-58-16-13-145zm-49 84-2 23-20 5-20-5-1-15h-18l2 28 37 10 36-10v-3l5-46v-5l3-36h-89l2 18h68l-2 18h-64l1 18zm1069-95-1 4v11l1 4h19l1-4v-14l-5-1h-15m-49 23-1 4v14l5 1h15l1-4v-11l-1-3-4-1h-15m25 0c-2 1-1 3-1 4v14l5 1h15v-18l-5-1h-14m24 0-1 4v14l5 1h15l1-4v-11l-1-3-4-1h-15m65 5-5 7c-3 7-4 15-2 22 1 2 1 6 3 8-11 5-26 3-38 3h-100c-4 0-9-1-11 1-3 2-3 4-3 7l1 13c3 19 11 40 29 48 11 5 22 6 34 7 29 1 60-7 80-28a105 105 0 0 0 23-35l2-5h3l8-2c9-2 18-9 20-18-8-6-17-6-27-5-1-7-5-14-11-19l-6-4m-138 18c-2 0-1 2-1 4v14h19c2 0 1-3 1-4v-14h-19m24 0-1 4v14h20l1-4v-10l-1-4h-19m25 0c-2 0-1 2-1 4v14h20v-18h-19m24 0-1 4v10l1 4h19l1-4v-14h-20m25 0c-2 0-1 3-1 4v14h20l1-4v-10l-1-4h-19M23 404 10 259h142l-13 145-58 16Zm80-61-2 23-20 5-20-5-1-15H42l2 28 37 10 36-10v-3l5-46v-5H57l-1-18h68v-4l1-9v-5H36l1 5 4 49zM32 220v9h8v-9h9v27h-9v-9h-8v9h-9v-27zm21 9v-9h25v9h-8v18h-9v-18zm29-9h10l5 9 6-9h10v27h-9v-13l-7 9-6-9v13h-9zm35 0h9v18h13v9h-22zm766 41c-1-11 8-21 19-21h117c12 0 20 10 20 21-1 11 0 24 3 35 4 11 9 18 19 19v10c-10 1-15 8-19 19-3 11-4 24-3 35 0 11-8 21-20 21H902c-11 0-20-10-19-21 0-11 0-24-4-35-3-11-9-18-18-19v-10c9-1 15-8 18-19 4-11 4-24 4-35zm82 101c19 0 30-9 30-24 0-11-8-19-20-20v-1c9-1 15-9 15-18 0-13-10-21-25-21h-35v84zm-21-74h18c9 0 15 5 15 13s-6 13-18 13h-15zm0 64v-28h18c12 0 19 4 19 14 0 9-6 14-19 14zM421 220h200v200H421Zm119 165c6 11 17 20 34 20 18 0 32-10 32-27 0-15-9-22-25-29l-5-2c-8-4-12-6-12-12 0-4 4-8 9-8 6 0 9 3 12 8l15-9c-6-11-15-15-27-15-17 0-27 11-27 25 0 15 9 22 22 28l5 2c9 4 14 6 14 13 0 5-5 9-13 9-9 0-15-5-19-12zm-66 2c4 10 13 18 28 18 16 0 28-9 28-29v-64h-19v64c0 9-4 12-10 12-7 0-9-5-12-10zm186-167h161c11 0 20 9 20 20v160c0 11-9 20-20 20H660c-10 0-19-9-19-20V240c0-11 9-20 19-20Zm104 159 1 1v-1zm1 20 11 3a74 74 0 0 0 27 0l11-4c3-2 6-5 7-8a30 30 0 0 0 1-22l-4-7-7-6-10-4-7-4-5-3-3-3a7 7 0 0 1 0-7c0-2 1-2 3-3l4-2 7-1a36 36 0 0 1 10 2l6 2 4 2v-18l-9-2a78 78 0 0 0-26 0l-11 5-7 8c-2 3-3 7-3 12 0 6 2 11 5 15 4 4 9 7 15 10l8 3 6 4 4 3a8 8 0 0 1 0 9c0 1-1 2-3 2l-4 2-7 1-12-2-11-6zm-33-68h25v-16h-70v16h25v71h20z"/>
</svg>
