<?xml version="1.0" encoding="UTF-8" standalone="no"?>
<svg
   viewBox="0 0 141.69296 200"
   version="1.1"
   id="svg88"
   sodipodi:docname="css3.svg"
   width="141.69296"
   height="200"
   inkscape:version="1.1.1 (3bf5ae0d25, 2021-09-20)"
   xmlns:inkscape="http://www.inkscape.org/namespaces/inkscape"
   xmlns:sodipodi="http://sodipodi.sourceforge.net/DTD/sodipodi-0.dtd"
   xmlns="http://www.w3.org/2000/svg"
   xmlns:svg="http://www.w3.org/2000/svg">
  <sodipodi:namedview
     id="namedview90"
     pagecolor="#ffffff"
     bordercolor="#666666"
     borderopacity="1.0"
     inkscape:pageshadow="2"
     inkscape:pageopacity="0.0"
     inkscape:pagecheckerboard="0"
     showgrid="false"
     fit-margin-top="0"
     fit-margin-left="0"
     fit-margin-right="0"
     fit-margin-bottom="0"
     inkscape:zoom="0.22768838"
     inkscape:cx="-234.97027"
     inkscape:cy="-586.32767"
     inkscape:window-width="1600"
     inkscape:window-height="829"
     inkscape:window-x="-8"
     inkscape:window-y="-8"
     inkscape:window-maximized="1"
     inkscape:current-layer="svg88" />
  <defs
     id="defs7">
    <linearGradient
       id="black">
      <title
         id="title2">Black</title>
      <stop
         style="stop-color: rgb(0, 0, 0);"
         id="stop4" />
    </linearGradient>
  </defs>
  <path
     id="css"
     d="m 33.34648,0 h 21.48437 v 8.98438 h -12.5 v 8.98437 h 12.5 v 8.98438 H 33.34648 Z M 59.12773,0 H 80.6121 v 7.8125 h -12.5 V 9.375 h 12.5 V 27.34375 H 59.12773 v -8.20312 h 12.5 v -1.5625 h -12.5 z m 25.78125,0 h 21.48437 v 7.8125 h -12.5 V 9.375 h 12.5 V 27.34375 H 84.90898 v -8.20312 h 12.5 v -1.5625 h -12.5 z M 141.69296,39.30469 128.78437,183.91367 70.75976,200 12.89492,183.93633 0,39.30469 Z m -49.06484,83.20586 -2.05898,23.00547 -19.78399,5.33984 v 0.002 l -0.0164,0.004 -19.75547,-5.33438 -1.26289,-14.14726 H 31.94375 l 2.48515,27.85195 36.33594,10.08711 0.0816,-0.0227 v -0.003 l 36.30352,-10.06133 0.26679,-2.99687 4.16836,-46.69961 0.43281,-4.76328 3.20235,-35.90313 H 26.36675 l 1.6125,17.73867 h 67.80117 l -1.61406,18.16446 H 29.56128 l 1.58985,17.73828 z" />
</svg>
