<?xml version="1.0" encoding="UTF-8" standalone="no"?>
<svg
   viewBox="0 0 199.99992 199.99992"
   version="1.1"
   id="svg88"
   sodipodi:docname="dart.svg"
   width="199.99992"
   height="199.99992"
   inkscape:version="1.1.1 (3bf5ae0d25, 2021-09-20)"
   xmlns:inkscape="http://www.inkscape.org/namespaces/inkscape"
   xmlns:sodipodi="http://sodipodi.sourceforge.net/DTD/sodipodi-0.dtd"
   xmlns:xlink="http://www.w3.org/1999/xlink"
   xmlns="http://www.w3.org/2000/svg"
   xmlns:svg="http://www.w3.org/2000/svg">
  <sodipodi:namedview
     id="namedview90"
     pagecolor="#ffffff"
     bordercolor="#666666"
     borderopacity="1.0"
     inkscape:pageshadow="2"
     inkscape:pageopacity="0.0"
     inkscape:pagecheckerboard="0"
     showgrid="false"
     fit-margin-top="0"
     fit-margin-left="0"
     fit-margin-right="0"
     fit-margin-bottom="0"
     inkscape:zoom="0.22768838"
     inkscape:cx="735.65457"
     inkscape:cy="-573.15177"
     inkscape:window-width="1600"
     inkscape:window-height="829"
     inkscape:window-x="-8"
     inkscape:window-y="-8"
     inkscape:window-maximized="1"
     inkscape:current-layer="svg88" />
  <defs
     id="defs7">
    <linearGradient
       id="black">
      <title
         id="title2">Black</title>
      <stop
         style="stop-color: rgb(0, 0, 0);"
         id="stop4" />
    </linearGradient>
    <linearGradient
       inkscape:collect="always"
       xlink:href="#black"
       id="linearGradient915"
       gradientTransform="scale(0.57124057,1.7505759)"
       x1="35.01152"
       y1="26.277065"
       x2="89.279373"
       y2="26.277065"
       gradientUnits="userSpaceOnUse" />
    <linearGradient
       inkscape:collect="always"
       xlink:href="#black"
       id="linearGradient917"
       gradientTransform="scale(1.741338,0.57427105)"
       x1="26.416468"
       y1="34.826759"
       x2="80.397949"
       y2="34.826759"
       gradientUnits="userSpaceOnUse" />
    <linearGradient
       inkscape:collect="always"
       xlink:href="#black"
       id="linearGradient919"
       gradientTransform="scale(1.8257419,0.54772256)"
       x1="30.124741"
       y1="264.73257"
       x2="79.419769"
       y2="264.73257"
       gradientUnits="userSpaceOnUse" />
    <linearGradient
       inkscape:collect="always"
       xlink:href="#black"
       id="linearGradient921"
       x1="46"
       y1="46"
       x2="145"
       y2="46"
       gradientUnits="userSpaceOnUse" />
    <linearGradient
       inkscape:collect="always"
       xlink:href="#black"
       id="linearGradient923"
       gradientTransform="scale(1.1281521,0.88640526)"
       x1="40.774643"
       y1="51.895"
       x2="152.4617"
       y2="51.895"
       gradientUnits="userSpaceOnUse" />
  </defs>
  <g
     transform="matrix(1.315789,0,0,1.315789,-26.31578,-26.31578)"
     id="dart_logo">
    <path
       d="m 25,115 c -3.08,-3.17 -5,-7.63 -5,-12 0,-2.02 1.14,-5.18 2,-7 L 46,46 v 81 c 0,8.02 1.01,9.99 5,14 z"
       style="fill:url(#linearGradient915)"
       id="path23" />
    <path
       d="M 140,51 114,25 c -2.27,-2.28 -7,-5 -11,-5 -3.44,0 -6.81,0.69 -9,2 L 46,46 Z"
       style="opacity:0.5;fill:url(#linearGradient917)"
       id="path25" />
    <path
       d="M 145,172 H 82 L 55,145 h 90 z"
       style="opacity:0.5;fill:url(#linearGradient919)"
       id="path27" />
    <path
       d="m 46,127 c 0,8.02 1.01,9.99 5,14 l 4,4 h 90 L 101,95 46,46 Z"
       style="opacity:0.75;fill:url(#linearGradient921)"
       id="path29" />
    <path
       d="M 126,46 H 46 l 99,99 h 27 V 83 L 140,51 c -4.49,-4.51 -8.49,-5 -14,-5 z"
       style="fill:url(#linearGradient923)"
       id="path31" />
    <polygon
       opacity="0.2"
       fill="#263238"
       points="171,82 171,144 144,144 145,145 172,145 172,83 "
       id="polygon33" />
  </g>
</svg>
