<?xml version="1.0" encoding="UTF-8" standalone="no"?>
<svg
   viewBox="0 0 200.0002 143.63638"
   version="1.1"
   id="svg88"
   sodipodi:docname="logo_black2.svg"
   width="200.0002"
   height="143.63638"
   inkscape:version="1.1.1 (3bf5ae0d25, 2021-09-20)"
   xmlns:inkscape="http://www.inkscape.org/namespaces/inkscape"
   xmlns:sodipodi="http://sodipodi.sourceforge.net/DTD/sodipodi-0.dtd"
   xmlns="http://www.w3.org/2000/svg"
   xmlns:svg="http://www.w3.org/2000/svg">
  <sodipodi:namedview
     id="namedview90"
     pagecolor="#ffffff"
     bordercolor="#666666"
     borderopacity="1.0"
     inkscape:pageshadow="2"
     inkscape:pageopacity="0.0"
     inkscape:pagecheckerboard="0"
     showgrid="false"
     fit-margin-top="0"
     fit-margin-left="0"
     fit-margin-right="0"
     fit-margin-bottom="0"
     inkscape:zoom="0.22768838"
     inkscape:cx="2.1959838"
     inkscape:cy="-147.13091"
     inkscape:window-width="1600"
     inkscape:window-height="829"
     inkscape:window-x="-8"
     inkscape:window-y="-8"
     inkscape:window-maximized="1"
     inkscape:current-layer="svg88" />
  <defs
     id="defs7">
    <linearGradient
       id="black">
      <title
         id="title2">Black</title>
      <stop
         style="stop-color: rgb(0, 0, 0);"
         id="stop4" />
    </linearGradient>
  </defs>
  <path
     d="m 91.3349,0.27341638 c -1.4431,0.58805 -1.0058,2.80219002 -1.0058,4.03942002 V 14.482336 c 0,1.11969 -0.3665,3.04611 0.4854,3.92465 0.9182,0.94722 3.4805,0.4622 4.6991,0.4622 h 10.1695 c 1.279,0 3.1781,0.35162 4.3781,-0.12032 1.4436,-0.56776 1.0057,-2.84756 1.0057,-4.06712 V 4.7116464 c 0,-1.10798 0.359,-3.00785 -0.3473,-3.94250002 -0.8557,-1.1322 -3.3887,-0.64375 -4.6377,-0.64375 H 95.9124 c -1.3418,0 -3.3215,-0.36385 -4.5775,0.14802 M 42.0956,23.005176 c -1.2822,0.55155 -0.8194,2.92324 -0.8194,4.03949 v 9.9701 c 0,1.07757 -0.3742,3.04347 0.3197,3.94258 0.8524,1.10389 3.2395,0.64367 4.466,0.64367 h 10.5683 c 1.2441,0 3.2558,0.37786 4.3751,-0.2351 1.2381,-0.67797 0.8093,-2.77488 0.8093,-3.95235 v -10.1695 c 0,-1.04825 0.3783,-3.04866 -0.3473,-3.9015 -0.8299,-0.97567 -3.4792,-0.48534 -4.6377,-0.48534 H 46.6601 c -1.3173,0 -3.3404,-0.37847 -4.5645,0.14795 m 24.7258,0 c -1.3519,0.58046 -1.0187,2.8688 -1.0187,4.03949 v 9.9701 c 0,1.18265 -0.3013,2.95813 0.5113,3.94258 0.9032,1.09412 3.2109,0.64367 4.4737,0.64367 H 81.356 c 1.2441,0 3.2559,0.37786 4.3751,-0.2351 1.2381,-0.67797 0.8094,-2.77488 0.8094,-3.95235 v -10.1695 c 0,-1.04825 0.3783,-3.04866 -0.3474,-3.9015 -0.8299,-0.97567 -3.4791,-0.48534 -4.6377,-0.48534 H 71.3859 c -1.3178,0 -3.3395,-0.37787 -4.5645,0.14795 m 24.3271,0.057 c -1.2285,0.69153 -0.8194,2.81157 -0.8194,3.98246 v 9.9701 c 0,1.09272 -0.3645,3.01895 0.3474,3.93241 0.878,1.12682 3.3826,0.65384 4.6377,0.65384 h 10.5683 c 1.2626,0 3.2245,0.36231 4.3651,-0.26282 1.2325,-0.67517 0.8193,-2.75533 0.8193,-3.92463 v -10.1695 c 0,-1.11964 0.3665,-3.04606 -0.4853,-3.92463 -0.8951,-0.92323 -3.3153,-0.46221 -4.4997,-0.46221 H 95.5136 c -1.203,0 -3.2931,-0.39861 -4.3651,0.20498 m 64.7839,4.78007 c -1.3956,2.50668 -3.1207,4.74716 -4.3252,7.37787 -2.9851,6.51905 -4.3255,14.3051 -2.5283,21.33602 0.6479,2.53499 1.5352,5.90668 3.4637,7.77667 v 0.19941 c -11.6643,5.54776 -25.9239,3.58923 -38.4846,3.58923 H 40.0798 13.7588 c -3.2692,0 -8.0938,-0.90468 -10.9671,0.90908 C 0.1203,70.717066 0,73.259836 0,76.097526 c 0,4.42035 0.2652,8.78346 0.9131,13.16053 2.8042,18.945794 10.9807,39.195464 29.5954,47.485404 10.5019,4.67697 22.1231,6.26162 33.4996,6.75972 28.7821,1.26042 59.9707,-6.30628 80.5506,-27.72485 6.9853,-7.27 12.8792,-15.56512 17.5033,-24.526254 1.7528,-3.39362 3.3619,-6.86022 4.8674,-10.3689 0.6281,-1.46441 1.0887,-3.71346 2.1276,-4.92164 0.6939,-0.80678 2.2812,-0.41535 3.2264,-0.47996 2.8335,-0.19402 5.6151,-0.55414 8.3748,-1.25324 8.9352,-2.26341 17.2124,-9.26741 19.342,-18.46981 -8.0438,-5.96132 -17.1186,-6.19841 -26.7198,-4.98505 -0.5763,-7.24627 -5.1984,-14.13501 -10.5683,-18.74359 -1.8565,-1.59342 -4.349,-3.63131 -6.7797,-4.18764 M 17.95,45.537576 c -1.5041,0.59761 -1.2002,2.54517 -1.2002,3.84008 v 10.16951 c 0,1.1986 -0.3434,3.1324 0.539,4.1009 0.8825,0.96889 3.449,0.48534 4.6454,0.48534 h 10.1695 c 1.3173,0 3.3406,0.37847 4.5646,-0.14795 1.2821,-0.55155 0.8193,-2.92324 0.8193,-4.03949 v -9.9701 c 0,-1.07757 0.3743,-3.04347 -0.3196,-3.94258 -0.8728,-1.13041 -3.4066,-0.64367 -4.6654,-0.64367 h -9.9701 c -1.3528,0 -3.3121,-0.35673 -4.5825,0.14796 m 24.327,0 c -1.4594,0.58285 -1.0008,2.78864 -1.0008,4.03949 v 10.1695 c 0,1.04825 -0.3782,3.04866 0.3474,3.9015 0.8299,0.97567 3.4792,0.48534 4.6377,0.48534 h 10.1695 c 1.3172,0 3.3406,0.37847 4.5645,-0.14795 1.2822,-0.55155 0.8193,-2.92324 0.8193,-4.03949 v -9.9701 c 0,-1.07757 0.3743,-3.04347 -0.3196,-3.94258 -0.8728,-1.13041 -3.4066,-0.64367 -4.6654,-0.64367 h -9.9701 c -1.3508,0 -3.3147,-0.35812 -4.5825,0.14796 m 24.7259,0 c -1.5203,0.60618 -1.2002,2.7338 -1.2002,4.03949 v 10.1695 c 0,1.14935 -0.2872,2.96192 0.544,3.9015 0.8594,0.97188 3.4604,0.48534 4.6404,0.48534 h 10.1695 c 1.3173,0 3.3406,0.37847 4.5646,-0.14795 1.2821,-0.55155 0.8193,-2.92324 0.8193,-4.03949 v -9.9701 c 0,-1.07757 0.3743,-3.04347 -0.3196,-3.94258 -0.8728,-1.13041 -3.4066,-0.64367 -4.6655,-0.64367 h -9.9701 c -1.3513,0 -3.3136,-0.35772 -4.5824,0.14796 m 24.332,0 c -1.4431,0.58804 -1.0058,2.8022 -1.0058,4.03949 v 10.1695 c 0,1.11964 -0.3665,3.04606 0.4854,3.92463 0.9182,0.94716 3.4805,0.46221 4.6991,0.46221 h 10.1695 c 1.279,0 3.1781,0.35155 4.3781,-0.12024 1.4436,-0.56789 1.0057,-2.84766 1.0057,-4.0672 v -9.9701 c 0,-1.10808 0.359,-3.00778 -0.3473,-3.94258 -0.8557,-1.1322 -3.3887,-0.64367 -4.6377,-0.64367 H 95.9124 c -1.3418,0 -3.3215,-0.3639 -4.5775,0.14796 m 24.7209,0 c -1.4594,0.58285 -1.0008,2.78864 -1.0008,4.03949 v 10.1695 c 0,1.04845 -0.3783,3.04866 0.3473,3.9015 0.8299,0.97567 3.4792,0.48534 4.6377,0.48534 h 10.1695 c 1.3195,0 3.3376,0.37687 4.5647,-0.14795 1.3849,-0.59243 1.0186,-2.84547 1.0186,-4.03949 v -9.9701 c 0,-1.18285 0.3013,-2.95813 -0.5113,-3.94258 -0.9254,-1.12103 -3.3769,-0.64367 -4.6732,-0.64367 h -9.9701 c -1.3507,0 -3.3146,-0.35812 -4.5824,0.14796"
     id="docker" />
</svg>
