<?xml version="1.0" encoding="UTF-8" standalone="no"?>
<svg
   viewBox="0 0 141.69296 200"
   version="1.1"
   id="svg88"
   sodipodi:docname="logo_black2.svg"
   width="141.69296"
   height="200"
   inkscape:version="1.1.1 (3bf5ae0d25, 2021-09-20)"
   xmlns:inkscape="http://www.inkscape.org/namespaces/inkscape"
   xmlns:sodipodi="http://sodipodi.sourceforge.net/DTD/sodipodi-0.dtd"
   xmlns="http://www.w3.org/2000/svg"
   xmlns:svg="http://www.w3.org/2000/svg">
  <sodipodi:namedview
     id="namedview90"
     pagecolor="#ffffff"
     bordercolor="#666666"
     borderopacity="1.0"
     inkscape:pageshadow="2"
     inkscape:pageopacity="0.0"
     inkscape:pagecheckerboard="0"
     showgrid="false"
     fit-margin-top="0"
     fit-margin-left="0"
     fit-margin-right="0"
     fit-margin-bottom="0"
     inkscape:zoom="0.22768838"
     inkscape:cx="-6.5879514"
     inkscape:cy="-366.72929"
     inkscape:window-width="1600"
     inkscape:window-height="829"
     inkscape:window-x="-8"
     inkscape:window-y="-8"
     inkscape:window-maximized="1"
     inkscape:current-layer="svg88" />
  <defs
     id="defs7">
    <linearGradient
       id="black">
      <title
         id="title2">Black</title>
      <stop
         style="stop-color: rgb(0, 0, 0);"
         id="stop4" />
    </linearGradient>
  </defs>
  <path
     d="M 12.894922,183.93633 0,39.30469 H 141.69297 L 128.78438,183.91367 70.759765,200 Z m 79.733205,-61.42578 -2.05899,23.00547 -19.783981,5.33984 v 0.002 l -0.01641,0.004 -19.755469,-5.33438 -1.262891,-14.14726 h -17.80664 l 2.485156,27.85195 36.335937,10.08711 0.08164,-0.0227 v -0.003 L 107.15,159.23225 l 0.2668,-2.99687 4.16835,-46.69961 0.43282,-4.76328 H 47.373828 L 45.752734,86.60803 h 67.879296 l 0.35586,-3.98711 0.80821,-8.99257 0.42422,-4.75899 H 26.366797 l 0.424609,4.75899 4.359765,48.88242 z M 22.197656,0 V 8.90625 H 30.44375 V 0 h 9.014843 V 26.97031 H 30.44414 v -9.03125 h -8.246094 v 9.03125 H 13.183593 V 0 Z M 43.376953,8.94375 V 0 H 68.267578 V 8.94375 H 60.328125 V 26.97031 H 51.313281 V 8.94375 Z M 72.217968,0 h 9.39961 L 87.399609,9.47656 93.175777,0 h 9.403133 V 26.97031 H 93.601567 V 13.60234 l -6.201958,9.58946 h -0.155078 l -6.20625,-9.58946 v 13.36797 h -8.820313 z m 34.847272,0 h 9.01718 v 18.05547 h 12.67696 v 8.91484 h -21.69414 z"
     id="html" />
</svg>
