<?xml version="1.0" encoding="UTF-8" standalone="no"?>
<svg
   viewBox="0 0 199.99998 199.99998"
   version="1.1"
   id="svg88"
   sodipodi:docname="logo_black2.svg"
   width="199.99998"
   height="199.99998"
   inkscape:version="1.1.1 (3bf5ae0d25, 2021-09-20)"
   xmlns:inkscape="http://www.inkscape.org/namespaces/inkscape"
   xmlns:sodipodi="http://sodipodi.sourceforge.net/DTD/sodipodi-0.dtd"
   xmlns="http://www.w3.org/2000/svg"
   xmlns:svg="http://www.w3.org/2000/svg">
  <sodipodi:namedview
     id="namedview90"
     pagecolor="#ffffff"
     bordercolor="#666666"
     borderopacity="1.0"
     inkscape:pageshadow="2"
     inkscape:pageopacity="0.0"
     inkscape:pagecheckerboard="0"
     showgrid="false"
     fit-margin-top="0"
     fit-margin-left="0"
     fit-margin-right="0"
     fit-margin-bottom="0"
     inkscape:zoom="0.22768838"
     inkscape:cx="-454.56864"
     inkscape:cy="103.21124"
     inkscape:window-width="1600"
     inkscape:window-height="829"
     inkscape:window-x="-8"
     inkscape:window-y="-8"
     inkscape:window-maximized="1"
     inkscape:current-layer="svg88" />
  <defs
     id="defs7">
    <linearGradient
       id="black">
      <title
         id="title2">Black</title>
      <stop
         style="stop-color: rgb(0, 0, 0);"
         id="stop4" />
    </linearGradient>
  </defs>
  <path
     d="M 0,0 H 199.99999 V 199.99999 H 0 Z m 119.26549,165.38632 c 5.52624,10.91892 16.82035,19.2496 34.30207,19.2496 17.87917,0 31.19236,-9.28458 31.19236,-26.23211 0,-15.72019 -9.0302,-22.71224 -25.02384,-29.57075 l -4.70588,-2.0159 c -8.07631,-3.49761 -11.57393,-5.78378 -11.57393,-11.43084 0,-4.56916 3.49444,-8.06677 9.00795,-8.06677 5.4054,0 8.88712,2.27981 12.11447,8.06677 l 14.65818,-9.41176 c -6.20031,-10.9062 -14.80445,-15.07154 -26.77265,-15.07154 -16.81081,0 -27.56757,10.74721 -27.56757,24.86486 0,15.32591 9.02385,22.57551 22.60732,28.36248 l 4.70588,2.01907 c 8.58505,3.75517 13.70429,6.04134 13.70429,12.49603 0,5.38633 -4.98251,9.28458 -12.78219,9.28458 -9.28458,0 -14.53418,-4.84261 -18.56916,-11.43084 z m -66.52145,2.02066 c 4.43879,9.39428 13.16693,17.19396 28.23847,17.19396 16.68044,0 28.1081,-8.87122 28.1081,-28.36248 V 91.97774 H 90.26709 v 64.00635 c 0,9.40859 -3.90143,11.8283 -10.08585,11.8283 -6.46741,0 -9.1574,-4.43561 -12.11447,-9.68203 z"
     id="javascript" />
</svg>
