<?xml version="1.0" encoding="UTF-8" standalone="no"?>
<svg
   viewBox="0 0 93.499595 199.9995"
   version="1.1"
   id="svg88"
   sodipodi:docname="mongodb.svg"
   width="93.499596"
   height="199.9995"
   inkscape:version="1.1.1 (3bf5ae0d25, 2021-09-20)"
   xmlns:inkscape="http://www.inkscape.org/namespaces/inkscape"
   xmlns:sodipodi="http://sodipodi.sourceforge.net/DTD/sodipodi-0.dtd"
   xmlns="http://www.w3.org/2000/svg"
   xmlns:svg="http://www.w3.org/2000/svg">
  <sodipodi:namedview
     id="namedview90"
     pagecolor="#ffffff"
     bordercolor="#666666"
     borderopacity="1.0"
     inkscape:pageshadow="2"
     inkscape:pageopacity="0.0"
     inkscape:pagecheckerboard="0"
     showgrid="false"
     fit-margin-top="0"
     fit-margin-left="0"
     fit-margin-right="0"
     fit-margin-bottom="0"
     inkscape:zoom="0.22768838"
     inkscape:cx="-928.90114"
     inkscape:cy="-603.89554"
     inkscape:window-width="1600"
     inkscape:window-height="829"
     inkscape:window-x="-8"
     inkscape:window-y="-8"
     inkscape:window-maximized="1"
     inkscape:current-layer="svg88" />
  <defs
     id="defs7">
    <linearGradient
       id="black">
      <title
         id="title2">Black</title>
      <stop
         style="stop-color: rgb(0, 0, 0);"
         id="stop4" />
    </linearGradient>
  </defs>
  <path
     d="m 64.15652,22.3085 c -8.414,-9.928 -15.663,-20.082 -17.135,-22.166 -0.132,-0.19 -0.413,-0.19 -0.545,0 -1.472,2.084 -8.719,12.238 -17.133,22.166 -72.112,91.868 11.382,153.85 11.382,153.85 l 0.677,0.47 c 0.633,9.59 2.206,23.371 2.206,23.371 h 6.283 c 0,0 1.566,-13.722 2.202,-23.309 l 0.681,-0.532 c 0,0 83.493,-61.982 11.382,-153.85 z m -17.406,152.503 h -0.001 c 0,0 -3.743,-3.193 -4.753,-4.793 l -0.01,-0.172 4.527,-100.017 c 0.01,-0.181 0.21,-0.286 0.362,-0.188 0.065,0.041 0.105,0.111 0.109,0.188 l 4.527,100.017 -0.01,0.172 c -1.009,1.599 -4.753,4.793 -4.753,4.793 z"
     id="path44" />
</svg>
