<?xml version="1.0" encoding="UTF-8" standalone="no"?>
<svg
   viewBox="0 0 200.00003 196.32747"
   version="1.1"
   id="svg88"
   sodipodi:docname="mysql.svg"
   width="200.00003"
   height="196.32747"
   inkscape:version="1.1.1 (3bf5ae0d25, 2021-09-20)"
   xmlns:inkscape="http://www.inkscape.org/namespaces/inkscape"
   xmlns:sodipodi="http://sodipodi.sourceforge.net/DTD/sodipodi-0.dtd"
   xmlns="http://www.w3.org/2000/svg"
   xmlns:svg="http://www.w3.org/2000/svg">
  <sodipodi:namedview
     id="namedview90"
     pagecolor="#ffffff"
     bordercolor="#666666"
     borderopacity="1.0"
     inkscape:pageshadow="2"
     inkscape:pageopacity="0.0"
     inkscape:pagecheckerboard="0"
     showgrid="false"
     fit-margin-top="0"
     fit-margin-left="0"
     fit-margin-right="0"
     fit-margin-bottom="0"
     inkscape:zoom="0.22768838"
     inkscape:cx="-823.49392"
     inkscape:cy="-621.46341"
     inkscape:window-width="1600"
     inkscape:window-height="829"
     inkscape:window-x="-8"
     inkscape:window-y="-8"
     inkscape:window-maximized="1"
     inkscape:current-layer="svg88" />
  <defs
     id="defs7">
    <linearGradient
       id="black">
      <title
         id="title2">Black</title>
      <stop
         style="stop-color: rgb(0, 0, 0);"
         id="stop4" />
    </linearGradient>
  </defs>
  <path
     d="m 184.22134,151.84866 c -10.8873,-0.27233 -19.3187,0.81408 -26.3899,3.80909 -2.0402,0.81524 -5.3012,0.81524 -5.5802,3.40016 1.0957,1.0864 1.2265,2.8529 2.1856,4.35607 1.6276,2.72036 4.4787,6.38733 7.0683,8.29681 2.8569,2.17746 5.7139,4.3459 8.7104,6.24986 5.3012,3.27868 11.2883,5.17479 16.45,8.44097 3.0023,1.90164 5.9842,4.34822 8.9865,6.39402 1.491,1.08756 2.4356,2.8587 4.348,3.53182 v -0.41213 c -0.9592,-1.22038 -1.2265,-2.9892 -2.174,-4.35723 -1.3573,-1.34971 -2.7204,-2.58172 -4.0835,-3.93609 -3.9468,-5.30413 -8.8499,-9.92467 -14.1424,-13.73376 -4.3566,-3.00054 -13.8837,-7.08196 -15.6449,-12.0998 0,0 -0.1425,-0.14416 -0.2762,-0.27814 2.9936,-0.27611 6.5365,-1.366 9.3905,-2.19112 4.6182,-1.22067 8.8354,-0.94457 13.596,-2.16524 2.1798,-0.54814 4.3567,-1.23288 6.5423,-1.90164 v -1.23288 c -2.4617,-2.4431 -4.223,-5.71276 -6.8068,-8.02304 -6.9316,-5.98305 -14.558,-11.82776 -22.4458,-16.73226 -4.223,-2.72123 -9.6637,-4.48104 -14.1541,-6.79916 -1.6246,-0.81756 -4.3421,-1.22038 -5.2983,-2.58841 -2.4501,-2.99153 -3.816,-6.93111 -5.5802,-10.4734 -3.9411,-7.47315 -7.7571,-15.767928 -11.1518,-23.670348 -2.4471,-5.301216 -3.9439,-10.602435 -6.9375,-15.502575 -14.0174,-23.128892 -29.246803,-37.131783 -52.643003,-50.8731 -5.0339,-2.859868 -11.0181,-4.08345 -17.4063,-5.58023 -3.4063,-0.142413 -6.8038,-0.406892 -10.2043,-0.540585 -2.1797,-0.956196 -4.3595,-3.5428655 -6.2603,-4.7664475 C 26.562337,3.5755475 6.5752373,-7.0327035 0.85843726,6.9760005 -2.8152627,15.822991 6.2991373,24.524663 9.4293373,29.015004 c 2.3104997,3.124348 5.3069997,6.667213 6.9316997,10.198453 0.9533,2.31347 1.2265,4.766447 2.1826,7.210704 2.174,5.984216 4.2114,12.651428 7.0742,18.231659 1.4909,2.856961 3.1214,5.853429 5.0251,8.425566 1.0986,1.5055 2.9964,2.176871 3.4062,4.632754 -1.8978,2.717456 -2.0461,6.798002 -3.133,10.201362 -4.8944,15.371788 -2.9936,34.415488 3.9468,45.703828 2.1711,3.40016 7.3473,10.88406 14.2848,8.02071 6.1208,-2.44426 4.7607,-10.19816 6.5277,-16.99529 0.4069,-1.64385 0.1337,-2.7224 0.9475,-3.80909 v 0.27494 c 1.9037,3.80328 3.8132,7.46676 5.5802,11.28834 4.223,6.6585 11.5616,13.59745 17.6882,18.218 3.2551,2.45792 5.8418,6.6678 9.9224,8.16865 v -0.41097 h -0.2674 c -0.8196,-1.22067 -2.0403,-1.76881 -3.1302,-2.71687 -2.4472,-2.45007 -5.1617,-5.44392 -7.0741,-8.16283 -5.711,-7.6144 -10.7507,-16.05304 -15.2294,-24.75762 -2.1827,-4.22674 -4.0834,-8.84728 -5.8534,-13.06152 -0.8138,-1.62466 -0.8138,-4.08025 -2.1769,-4.89433 -2.0461,2.9892 -5.0309,5.57762 -6.5248,9.23906 -2.5866,5.85605 -2.8569,13.06384 -3.816,20.54891 -0.5406,0.14212 -0.2674,0 -0.5406,0.27029 -4.348,-1.08756 -5.8447,-5.57558 -7.481,-9.37188 -4.0806,-9.67065 -4.7665,-25.17701 -1.2236,-36.331658 0.9475,-2.85115 5.0396,-11.828924 3.4004,-14.549286 -0.8225,-2.595388 -3.5399,-4.077637 -5.0338,-6.126628 -1.7642,-2.583763 -3.6794,-5.841804 -4.8914,-8.704578 -3.2668,-7.614689 -4.9089,-16.051882 -8.4343,-23.666571 -1.6334,-3.542865 -4.4961,-7.216517 -6.8009,-10.474557 -2.5896,-3.673652 -5.4435997,-6.257415 -7.4867997,-10.605345 -0.6743,-1.499687 -1.6276,-3.949756 -0.5435,-5.5773245 0.2674,-1.089888 0.8196,-1.499687 1.9095,-1.772885 1.7582997,-1.496781 6.7979997,0.403985 8.5621997,1.220675 5.0367,2.0344595 9.2538,3.9497575 13.4652,6.8009065 1.9065,1.363087 3.9468,3.94685 6.3911,4.632754 h 2.8627 c 4.3509,0.94457 9.251,0.264479 13.3345,1.493874 7.2049,2.310564 13.7326,5.711017 19.586,9.384669 17.8131,11.291247 32.504803,27.346035 42.430103,46.522264 1.6363,3.124348 2.3222,5.984212 3.8161,9.242252 2.8569,6.67884 6.3969,13.479748 9.248,20.002508 2.8541,6.39402 5.5803,12.91766 9.6666,18.23079 2.0345,2.85173 10.1985,4.34822 13.8721,5.84558 2.7146,1.22039 6.9375,2.31028 9.3876,3.80444 4.624,2.85173 9.2393,6.1214 13.5989,9.25505 2.1711,1.63251 8.9749,5.02918 9.3847,7.7539"
     id="path28" />
</svg>
