<?xml version="1.0" encoding="UTF-8" standalone="no"?>
<svg
   viewBox="0 0 200.00065 200.00066"
   version="1.1"
   id="svg88"
   sodipodi:docname="swift.svg"
   width="200.00066"
   height="200.00066"
   inkscape:version="1.1.1 (3bf5ae0d25, 2021-09-20)"
   xmlns:inkscape="http://www.inkscape.org/namespaces/inkscape"
   xmlns:sodipodi="http://sodipodi.sourceforge.net/DTD/sodipodi-0.dtd"
   xmlns="http://www.w3.org/2000/svg"
   xmlns:svg="http://www.w3.org/2000/svg">
  <sodipodi:namedview
     id="namedview90"
     pagecolor="#ffffff"
     bordercolor="#666666"
     borderopacity="1.0"
     inkscape:pageshadow="2"
     inkscape:pageopacity="0.0"
     inkscape:pagecheckerboard="0"
     showgrid="false"
     fit-margin-top="0"
     fit-margin-left="0"
     fit-margin-right="0"
     fit-margin-bottom="0"
     inkscape:zoom="0.22768838"
     inkscape:cx="-327.20158"
     inkscape:cy="-590.71964"
     inkscape:window-width="1600"
     inkscape:window-height="829"
     inkscape:window-x="-8"
     inkscape:window-y="-8"
     inkscape:window-maximized="1"
     inkscape:current-layer="svg88" />
  <defs
     id="defs7">
    <linearGradient
       id="black">
      <title
         id="title2">Black</title>
      <stop
         style="stop-color: rgb(0, 0, 0);"
         id="stop4" />
    </linearGradient>
  </defs>
  <path
     d="m 200.00065,62.561787 v 74.876803 c 0,2.38757 0,4.77515 -0.0135,7.16608 -0.0135,2.01378 -0.037,4.02082 -0.0909,6.03123 -0.11786,4.38451 -0.37716,8.80607 -1.15506,13.1367 -0.79137,4.40135 -2.08113,8.49625 -4.11511,12.4935 -2.00031,3.92653 -4.61013,7.51967 -7.72846,10.63126 -3.11495,3.11832 -6.70473,5.73152 -10.63463,7.72846 -3.99387,2.03398 -8.08541,3.32374 -12.48339,4.11511 -4.33737,0.77789 -8.75555,1.03719 -13.14006,1.15506 -2.01378,0.0539 -4.02419,0.0774 -6.0346,0.0909 -2.38757,0.0168 -4.77851,0.0135 -7.16608,0.0135 H 62.562053 c -2.39094,0 -4.77514,0.003 -7.16272,-0.0135 -2.01377,-0.0135 -4.02755,-0.037 -6.03796,-0.0909 -4.38114,-0.11787 -8.80606,-0.37717 -13.14006,-1.15506 -4.39798,-0.79137 -8.48952,-2.08113 -12.4834,-4.11511 -3.92989,-2.00031 -7.52304,-4.61014 -10.63799,-7.72846 -3.1149605,-3.11159 -5.7281605,-6.70473 -7.7251005,-10.63126 -2.03398,-3.99725 -3.32374,-8.09215 -4.1151,-12.4935 -0.77789998,-4.33063 -1.03719998,-8.75219 -1.15505998,-13.1367 -0.0539,-2.01041 -0.0775,-4.02082 -0.0909,-6.03123 -0.0168,-2.39093 -0.0134999953,-4.77851 -0.0134999953,-7.16608 V 62.561787 c 0,-2.387573 -0.003000005,-4.778511 0.0134999953,-7.166083 0.0135,-2.01041 0.0371,-4.020818 0.0909,-6.034596 0.11786,-4.381144 0.37716,-8.802698 1.15505998,-13.136696 0.79136,-4.397981 2.08112,-8.492885 4.1151,-12.490132 1.99694,-3.926528 4.61014,-7.519672 7.7251005,-10.634627 0.78126,-0.777897 1.58947,-1.525486 2.42461,-2.239401 2.5088,-2.1417425 5.2668,-3.9871435 8.21338,-5.4856905 0.99679,-0.508495 2.00368,-0.969845 3.0173,-1.390785 3.04087,-1.2560854 6.1693,-2.1316406 9.4661,-2.7243241 3.24965,-0.5859485 6.55319,-0.8755552 9.84663,-1.0338287 1.10118,-0.05388 2.19899,-0.090923 3.29343,-0.1212307 2.01041,-0.05388 4.02419,-0.077453 6.0346,-0.090923 C 57.783543,0 60.171113,0 62.562053,0 h 74.876807 c 2.38757,0 4.77851,0 7.16608,0.01347 2.01041,0.01347 4.02082,0.033675 6.0346,0.090923 4.38451,0.1178632 8.80269,0.3737947 13.14006,1.1550594 4.39798,0.7913672 8.48952,2.0811271 12.48339,4.1151091 3.9299,1.99694 7.52304,4.610135 10.638,7.7250915 3.11496,3.114955 5.72478,6.708099 7.72509,10.634627 2.03398,3.997247 3.32711,8.092151 4.11511,12.490132 0.7779,4.333998 1.0372,8.755552 1.15506,13.136696 0.0572,2.013777 0.0774,4.024186 0.0909,6.034596 0.0135,2.387572 0.0135,4.77851 0.0135,7.166083 z m -41.52152,60.894863 c -0.007,-0.007 -0.0101,-0.0101 -0.0168,-0.0168 0.22226,-0.75432 0.45125,-1.50191 0.6432,-2.27307 8.30094,-33.072417 -11.95806,-72.172691 -46.23942,-92.761708 15.02251,20.366761 21.66663,45.037212 15.76336,66.60955 -0.52533,1.922849 -1.15842,3.77162 -1.85887,5.566508 -0.75769,-0.4984 -1.71406,-1.064138 -3.00046,-1.774689 0,0 -34.099497,-21.053732 -71.061397,-58.298504 -0.96985,-0.97658 19.70672,29.556724 43.17834,54.351774 -11.05894,-6.20634 -41.87175,-28.623921 -61.37979,-46.478512 2.39767,3.997246 5.2466,7.842954 8.38176,11.550594 16.28869,20.659735 37.53438,46.148497 62.986087,65.723887 -17.881527,10.94444 -43.151397,11.79305 -68.310137,0.0101 -6.22318,-2.91627 -12.07256,-6.43533 -17.48753,-10.43257 10.6481,17.03291 27.05129,31.73214 47.01394,40.31258 23.805,10.23052 47.478667,9.53681 65.110997,0.16837 l -0.0135,0.0202 c 0.0808,-0.0539 0.18522,-0.10776 0.26604,-0.15828 0.72401,-0.39063 1.44466,-0.78799 2.14511,-1.20557 8.47268,-4.39798 25.20588,-8.85994 34.18706,8.61749 2.20236,4.27675 6.87648,-18.38666 -10.30798,-39.53132 z"
     id="path57" />
</svg>
