<?xml version="1.0" encoding="UTF-8" standalone="no"?>
<svg
   viewBox="0 0 200 200"
   version="1.1"
   id="svg88"
   sodipodi:docname="ts.svg"
   width="200"
   height="200"
   inkscape:version="1.1.1 (3bf5ae0d25, 2021-09-20)"
   xmlns:inkscape="http://www.inkscape.org/namespaces/inkscape"
   xmlns:sodipodi="http://sodipodi.sourceforge.net/DTD/sodipodi-0.dtd"
   xmlns="http://www.w3.org/2000/svg"
   xmlns:svg="http://www.w3.org/2000/svg">
  <sodipodi:namedview
     id="namedview90"
     pagecolor="#ffffff"
     bordercolor="#666666"
     borderopacity="1.0"
     inkscape:pageshadow="2"
     inkscape:pageopacity="0.0"
     inkscape:pagecheckerboard="0"
     showgrid="false"
     fit-margin-top="0"
     fit-margin-left="0"
     fit-margin-right="0"
     fit-margin-bottom="0"
     inkscape:zoom="0.22768838"
     inkscape:cx="76.859433"
     inkscape:cy="-805.92605"
     inkscape:window-width="1600"
     inkscape:window-height="829"
     inkscape:window-x="-8"
     inkscape:window-y="-8"
     inkscape:window-maximized="1"
     inkscape:current-layer="svg88" />
  <defs
     id="defs7">
    <linearGradient
       id="black">
      <title
         id="title2">Black</title>
      <stop
         style="stop-color: rgb(0, 0, 0);"
         id="stop4" />
    </linearGradient>
  </defs>
  <path
     d="m 19.53125,0 h 160.9375 C 191.25547,0 200,8.74453 200,19.53125 v 160.9375 C 200,191.25547 191.25547,200 180.46875,200 H 19.53125 C 8.74453,200 0,191.25547 0,180.46875 V 19.53125 C 0,8.74453 8.74453,0 19.53125,0 Z m 103.55469,159.15625 c 0.24531,0.20469 0.49297,0.40586 0.74219,0.60352 v -0.77539 z m 0.74219,19.35938 c 3.16406,1.64062 7.03125,2.85156 11.32812,3.67187 4.29688,0.82031 8.98438,1.21094 13.67188,1.21094 4.6875,0 8.98437,-0.42969 13.28125,-1.32813 4.29687,-0.89843 7.8125,-2.38281 10.9375,-4.29687 3.16406,-2.07031 5.85937,-4.6875 7.42187,-8.20313 1.5625,-3.51562 2.77344,-7.42187 2.77344,-12.5 0,-3.55468 -0.54688,-6.64062 -1.60156,-9.375 -1.05469,-2.73437 -2.57813,-5.07812 -4.6875,-7.03125 -1.99219,-2.07031 -4.29688,-3.90625 -7.03125,-5.46875 -2.73438,-1.5625 -5.85938,-3.20312 -9.375,-4.6875 -2.57813,-1.05468 -4.6875,-2.07031 -7.03125,-3.08593 -2.03125,-1.01563 -3.78907,-2.03125 -5.07813,-3.04688 -1.44531,-1.05469 -2.53906,-2.14844 -3.32031,-3.28125 -0.78125,-1.17187 -1.17188,-2.46094 -1.17188,-3.90625 0,-1.32812 0.34766,-2.53906 1.05469,-3.63281 0.70703,-1.09375 1.67969,-1.99219 2.92969,-2.77344 1.25,-0.78125 2.8125,-1.36719 4.6875,-1.79687 1.83594,-0.42969 3.86719,-0.625 6.25,-0.625 1.64062,0 3.35937,0.12109 5.07812,0.36718 1.79688,0.2461 3.63282,0.625 5.46875,1.13282 1.83594,0.50781 3.63282,1.13281 5.46875,1.91406 1.71875,0.78125 3.32032,1.67969 4.6875,2.69531 V 96.10938 c -2.96875,-1.13282 -6.25,-1.99219 -9.76562,-2.53907 -3.51563,-0.54687 -7.42188,-0.82031 -12.10938,-0.82031 -4.6875,0 -8.98437,0.50781 -13.28125,1.48438 -4.29687,0.97656 -7.8125,2.53906 -10.9375,4.6875 -3.16406,2.10937 -5.46875,4.6875 -7.42187,8.20312 -1.83594,3.28125 -2.73438,7.03125 -2.73438,11.71875 0,5.85938 1.67969,10.9375 5.07813,14.84375 3.35937,4.29688 8.59375,7.42188 15.23437,10.54688 2.69532,1.09375 5.07813,2.1875 7.42188,3.24218 2.34375,1.05469 4.29687,2.14844 5.85937,3.28125 1.67969,1.13282 3.00782,2.38282 3.90625,3.71094 0.97657,1.32813 1.48438,2.89063 1.48438,4.6875 0,1.25 -0.30469,2.42188 -0.89844,3.51563 -0.59375,1.09375 -1.52344,2.03125 -2.77344,2.8125 -1.25,0.78125 -2.77343,1.40625 -4.6875,1.875 -1.83593,0.42968 -3.90625,0.66406 -6.64062,0.66406 -4.29688,0 -8.59375,-0.74219 -12.5,-2.22656 -3.99688,-1.38086 -7.65586,-3.40352 -10.97656,-6.03711 z M 91.01563,110.9375 h 25 V 94.92188 H 46.09375 v 16.01562 h 25 v 71.48438 h 19.92188 z"
     id="typescript" />
</svg>
